<?xml version="1.0" encoding="UTF-8"?>
<!DOCTYPE svg PUBLIC "-//W3C//DTD SVG 1.1//EN" "http://www.w3.org/Graphics/SVG/1.1/DTD/svg11.dtd">
<!-- Creator: CorelDRAW X7 -->
<svg xmlns="http://www.w3.org/2000/svg" xml:space="preserve" width="96.9466mm" height="21.3494mm" version="1.1" style="shape-rendering:geometricPrecision; text-rendering:geometricPrecision; image-rendering:optimizeQuality; fill-rule:evenodd; clip-rule:evenodd"
viewBox="0 0 2299 506"
 xmlns:xlink="http://www.w3.org/1999/xlink">
 <defs>
  <style type="text/css">
   <![CDATA[
    .fil1 {fill:#08315A}
    .fil0 {fill:#E2081B}
   ]]>
  </style>
 </defs>
 <g id="Capa_x0020_1">
  <metadata id="CorelCorpID_0Corel-Layer"/>
  <g id="_228458325504">
   <path class="fil0" d="M141 365c14,-5 28,-13 41,-20 4,-3 8,-6 11,-8 -1,26 20,33 41,39 10,3 21,6 28,12 9,9 4,21 -9,23 -20,2 -50,-7 -65,-14 -14,-6 -42,-23 -47,-32zm181 -28c42,11 47,-39 70,-50 13,-6 21,5 17,19 -5,18 -20,43 -31,53 -8,8 -35,34 -46,36 -1,-11 -2,-20 -4,-31 -1,-11 -4,-18 -6,-27zm-155 -118c22,0 41,-13 54,-23 7,-6 15,-12 21,-18 14,-16 8,-12 15,-23 3,4 4,9 7,13l19 20c19,15 36,28 64,32 -16,16 -19,18 -28,44 -8,23 -10,35 -7,61 -17,-10 -30,-13 -55,-13 -28,0 -33,3 -55,12 4,-30 -4,-60 -19,-86 -2,-4 -4,-7 -7,-11 -4,-4 -6,-5 -9,-8zm-15 -4c-21,5 -24,26 -24,51 0,10 2,26 -4,33 -7,9 -18,6 -22,-4 -15,-30 -10,-91 8,-121 19,22 21,23 40,39l2 2zm209 -1c27,-25 -23,-63 -26,-82 -2,-14 12,-18 22,-12 30,19 59,65 63,102 -9,-1 -19,-4 -29,-5 -11,-2 -19,-2 -30,-3zm-104 -74c-7,-8 -9,-14 -24,-15 -23,-1 -47,16 -63,13 -11,-1 -13,-14 -6,-22 8,-9 34,-21 50,-26 17,-5 34,-6 52,-6 6,0 12,0 16,3 -8,16 -21,32 -25,53zm31 -63c-9,-8 -32,-56 -57,-71 -27,-17 -77,5 -99,17 -25,14 -56,36 -66,61 -15,36 30,65 37,82l-46 14c-23,7 -43,15 -51,37 -16,43 3,136 35,162 28,22 62,-2 90,-10 2,30 -8,67 5,93 10,19 37,31 62,37 27,7 63,10 91,4 55,-10 45,-46 44,-98 17,3 66,32 96,23 23,-8 47,-41 58,-64 12,-22 30,-67 21,-97 -5,-16 -16,-23 -32,-28 -8,-3 -43,-12 -46,-14l28 -36c7,-10 20,-26 22,-42 7,-49 -80,-129 -126,-131 -23,-1 -31,11 -40,24l-26 37z"/>
   <path class="fil1" d="M709 337l-1 -74c36,-3 85,0 85,38 -1,46 -75,40 -84,36zm-1 -120c0,-11 0,-24 0,-35 0,-28 -3,-26 8,-27 21,-1 45,-2 60,9 15,11 26,60 -68,53zm-64 -104l0 269c55,7 145,10 185,-19 58,-42 31,-118 -24,-127l9 -5c48,-22 51,-84 3,-108 -44,-23 -121,-16 -173,-10z"/>
   <path class="fil1" d="M1617 384c0,-34 0,-68 0,-101 0,-32 -1,-64 34,-64 35,0 34,34 34,65 0,33 0,66 0,100l56 0c0,-34 0,-68 0,-101 0,-32 1,-64 35,-64 35,0 33,33 33,65 0,33 0,66 0,100l57 -1c0,-32 0,-64 0,-97 0,-32 3,-59 -12,-85 -24,-45 -98,-45 -132,-8 -10,-13 -24,-25 -48,-27 -31,-2 -42,9 -57,17l-1 -13 -56 0 0 214 57 0z"/>
   <path class="fil1" d="M1460 295c1,21 3,33 -21,42 -53,19 -67,-41 -30,-50 15,-4 41,0 51,8zm-110 -106c7,9 15,30 22,37 15,-7 32,-14 54,-14 11,0 21,3 27,9 8,8 7,14 7,28 -18,-4 -25,-8 -46,-8 -16,1 -31,4 -44,10 -22,12 -40,33 -37,69 3,33 21,52 45,62 23,10 63,8 82,-12l0 13 56 1c1,-34 0,-68 0,-101 0,-35 5,-64 -14,-88 -24,-31 -78,-35 -118,-23 -7,2 -29,10 -34,17z"/>
   <path class="fil1" d="M1015 295c2,22 4,33 -20,42 -18,6 -39,3 -47,-10 -10,-18 0,-36 17,-40 15,-4 41,0 50,8zm-110 -108c2,5 20,37 22,39 17,-7 32,-15 56,-14 30,1 33,16 33,37 -17,-5 -26,-8 -47,-8 -16,1 -30,4 -43,10 -23,12 -41,33 -37,69 2,32 20,52 44,62 13,5 31,8 46,5 18,-3 25,-9 37,-16l0 13 56 -1c0,-34 0,-68 0,-102 0,-34 4,-61 -14,-86 -14,-18 -40,-28 -73,-29 -15,-1 -31,2 -45,6 -15,4 -23,9 -35,15z"/>
   <path class="fil1" d="M1172 183l0 -12 -56 -1 0 214 56 0c1,-34 0,-68 0,-101 0,-16 -1,-32 5,-45 12,-26 51,-25 63,-2 6,13 4,31 4,47 0,33 0,67 1,100l56 1c-1,-41 5,-145 -6,-175 -17,-45 -74,-52 -108,-35 -7,3 -10,7 -15,9z"/>
   <path class="fil1" d="M1955 253c3,-48 67,-54 73,0l-73 0zm119 101c-3,-4 -30,-30 -33,-32 -4,3 -5,5 -10,8 -12,9 -30,13 -46,8 -17,-5 -30,-21 -31,-43l129 0c6,-60 -17,-109 -61,-124 -49,-17 -98,9 -117,60 -17,46 -6,112 34,140 19,13 45,20 74,16 28,-4 48,-18 61,-33z"/>
   <path class="fil1" d="M2299 383c-4,-7 -12,-19 -18,-27 -6,-9 -11,-17 -17,-26 -12,-18 -23,-36 -35,-54 -7,-10 -6,-6 7,-27 10,-15 46,-67 51,-79l-66 0c-5,7 -10,17 -15,26 -3,4 -5,9 -7,13 -3,5 -5,10 -8,12 -4,-8 -23,-41 -29,-51l-66 0c2,6 40,63 47,74 5,8 11,16 16,24 -3,7 -14,22 -19,29l-56 87 67 -1 41 -68c8,15 31,55 40,69l67 -1z"/>
  </g>
 </g>
</svg>
