<?xml version="1.0"?>
<svg xmlns="http://www.w3.org/2000/svg" viewBox="0 0 32 32">
    <path style="text-indent:0;text-align:start;line-height:normal;text-transform:none;block-progression:tb;-inkscape-font-specification:Sans" d="M 12 2 C 8.1458514 2 5 5.1458514 5 9 C 5 11.408843 6.2311596 13.55212 8.09375 14.8125 C 4.5266132 16.342333 2 19.881262 2 24 L 4 24 C 4 19.569334 7.5693339 16 12 16 C 13.376046 16 14.65445 16.35784 15.78125 16.96875 C 14.671114 18.342565 14 20.103031 14 22 C 14 26.406433 17.593567 30 22 30 C 26.406433 30 30 26.406433 30 22 C 30 17.593567 26.406433 14 22 14 C 20.252849 14 18.630732 14.574679 17.3125 15.53125 C 16.870028 15.253247 16.392372 15.020656 15.90625 14.8125 C 17.76884 13.55212 19 11.408843 19 9 C 19 5.1458513 15.854148 2 12 2 z M 12 4 C 14.773268 4 17 6.2267317 17 9 C 17 11.773268 14.773268 14 12 14 C 9.2267317 14 7 11.773268 7 9 C 7 6.2267316 9.2267316 4 12 4 z M 22 16 C 25.325553 16 28 18.674447 28 22 C 28 25.325553 25.325553 28 22 28 C 18.674447 28 16 25.325553 16 22 C 16 18.674447 18.674447 16 22 16 z M 21 18 L 21 21 L 18 21 L 18 23 L 21 23 L 21 26 L 23 26 L 23 23 L 26 23 L 26 21 L 23 21 L 23 18 L 21 18 z" overflow="visible" font-family="Sans"/>
</svg>
