<?xml version="1.0" encoding="UTF-8"?>
<svg xmlns="http://www.w3.org/2000/svg" xmlns:xlink="http://www.w3.org/1999/xlink" width="0px" height="0px" viewBox="0 0 25 25" version="1.1">
<g id="surface1">
<path style=" stroke:none;fill-rule:nonzero;fill:rgb(0%,0%,0%);fill-opacity:1;" d="M 6.5 1 C 5.402344 1 4.5 1.902344 4.5 3 L 4.5 22.15625 L 4.515625 22.15625 C 4.597656 23.179688 5.453125 24 6.5 24 L 21 24 L 21 23 L 6.5 23 C 5.941406 23 5.5 22.558594 5.5 22 C 5.5 21.441406 5.941406 21 6.5 21 L 21 21 L 21 20 L 6.5 20 C 5.941406 20 5.5 19.558594 5.5 19 C 5.5 18.441406 5.941406 18 6.5 18 L 21 18 L 21 1 Z M 6.5 2 L 20 2 L 20 17 L 6.5 17 C 6.128906 17 5.800781 17.128906 5.5 17.308594 L 5.5 3 C 5.5 2.441406 5.941406 2 6.5 2 Z M 8 3.5 C 7.453125 3.5 7 3.953125 7 4.5 L 7 6 C 7 6.546875 7.453125 7 8 7 L 17.5 7 C 18.046875 7 18.5 6.546875 18.5 6 L 18.5 4.5 C 18.5 3.953125 18.046875 3.5 17.5 3.5 Z M 8 4.5 L 17.5 4.5 L 17.5 6 L 8 6 Z M 8 4.5 "/>
</g>
</svg>
