<?xml version="1.0" encoding="UTF-8"?>
<svg xmlns="http://www.w3.org/2000/svg" xmlns:xlink="http://www.w3.org/1999/xlink" width="0px" height="0px" viewBox="0 0 86 86" version="1.1">
<g id="surface1">
<path style=" stroke:none;fill-rule:nonzero;fill:rgb(0%,0%,0%);fill-opacity:1;" d="M 13.4375 5.375 C 9.007812 5.375 5.375 9.007812 5.375 13.4375 L 5.375 67.1875 C 5.375 71.617188 9.007812 75.25 13.4375 75.25 L 67.1875 75.25 C 71.617188 75.25 75.25 71.617188 75.25 67.1875 L 75.25 13.4375 C 75.25 9.007812 71.617188 5.375 67.1875 5.375 Z M 13.4375 10.75 L 67.1875 10.75 C 68.699219 10.75 69.875 11.925781 69.875 13.4375 L 69.875 67.1875 C 69.875 68.699219 68.699219 69.875 67.1875 69.875 L 13.4375 69.875 C 11.925781 69.875 10.75 68.699219 10.75 67.1875 L 10.75 13.4375 C 10.75 11.925781 11.925781 10.75 13.4375 10.75 Z M 21.5 21.5 C 19.671875 21.5 17.886719 21.667969 16.125 21.917969 L 16.125 27.359375 C 17.867188 27.0625 19.671875 26.875 21.5 26.875 C 39.285156 26.875 53.75 41.339844 53.75 59.125 C 53.75 60.953125 53.5625 62.757812 53.265625 64.5 L 58.707031 64.5 C 58.957031 62.738281 59.125 60.953125 59.125 59.125 C 59.125 38.382812 42.242188 21.5 21.5 21.5 Z M 21.5 37.625 C 19.632812 37.625 17.847656 37.941406 16.125 38.382812 L 16.125 43.988281 C 17.804688 43.378906 19.609375 43 21.5 43 C 30.382812 43 37.625 50.242188 37.625 59.125 C 37.625 61.015625 37.246094 62.820312 36.636719 64.5 L 42.242188 64.5 C 42.683594 62.777344 43 60.992188 43 59.125 C 43 47.261719 33.363281 37.625 21.5 37.625 Z M 21.5 53.75 C 18.539062 53.75 16.125 56.164062 16.125 59.125 C 16.125 62.085938 18.539062 64.5 21.5 64.5 C 24.460938 64.5 26.875 62.085938 26.875 59.125 C 26.875 56.164062 24.460938 53.75 21.5 53.75 Z M 21.5 53.75 "/>
</g>
</svg>
