<?xml version="1.0" encoding="utf-8"?>
<!-- Generator: Adobe Illustrator 26.5.0, SVG Export Plug-In . SVG Version: 6.00 Build 0)  -->
<svg version="1.1" id="Capa_1" xmlns="http://www.w3.org/2000/svg" xmlns:xlink="http://www.w3.org/1999/xlink" x="0px" y="0px"
	 viewBox="0 0 180 180" style="enable-background:new 0 0 180 180;" xml:space="preserve">
<style type="text/css">
	.st0{fill:#B7B7B7;}
</style>
<path class="st0" d="M157.1,28.2h-69c-12.5,0-22.6,10-22.9,22.4l-7.9,1.1c-8.4,0-16.5,3.1-22.8,8.8L18.5,75
	C12,80.8,8.4,89.1,8.4,97.8v29.9c0,0,0,0.1,0,0.1H4.6c-2.5,0-4.6,2.1-4.6,4.6c0,2.5,2.1,4.6,4.6,4.6h12.1c0.3,0,0.7,0,1-0.1l4.1-0.1
	c2.8,8.7,11,15,20.7,15c10.2,0,18.8-7.1,21.1-16.6l8.2-0.3c3.5,1.3,10.4,2.3,29.9,2.3c1.2,0,2.3,0,3.4,0c3,8.5,11,14.5,20.5,14.5
	c9.6,0,17.8-6.3,20.6-14.9h10.9c12.6,0,22.9-10.3,22.9-22.9V51.1C180,38.5,169.7,28.2,157.1,28.2z M65.2,85H47.2l4.4-3.5
	c2.2-1.7,4.9-2.7,7.7-2.7h6V85z M17.6,97.8c0-6.1,2.6-11.9,7.1-15.9l16.1-14.6c4.5-4.1,10.5-6.4,16.6-6.4h7.9v8.7h-6
	c-4.9,0-9.7,1.7-13.5,4.7l-10,8c-2.2,1.8-3.1,4.7-2.1,7.4c1,2.7,3.4,4.5,6.3,4.5h25.2v31.9c0,0.5,0.1,1.1,0.2,1.6H64
	c-1.2-10.9-10.4-19.4-21.6-19.4c-11.2,0-20.4,8.5-21.6,19.4h-3.3V97.8z M42.4,142.6c-6.9,0-12.5-5.6-12.5-12.5
	c0-6.9,5.6-12.5,12.5-12.5c6.9,0,12.5,5.6,12.5,12.5C55,137,49.3,142.6,42.4,142.6z M125.6,142.6c-6.9,0-12.5-5.6-12.5-12.5
	c0-6.9,5.6-12.5,12.5-12.5c6.9,0,12.5,5.6,12.5,12.5C138.1,137,132.5,142.6,125.6,142.6z M170.8,114c0,7.6-6.1,13.7-13.7,13.7h-9.9
	c-1.2-10.9-10.4-19.4-21.6-19.4c-11.3,0-20.6,8.7-21.6,19.7c-0.8,0-1.5,0-2.3,0c-11.4,0-23.7-0.4-27.2-2v-75
	c0-7.6,6.1-13.7,13.7-13.7h69c7.5,0,13.7,6.1,13.7,13.7V114z"/>
</svg>
