<svg version="1.1" xmlns="http://www.w3.org/2000/svg" xmlns:xlink="http://www.w3.org/1999/xlink" style="enable-background:new 0 0 30 25;" xml:space="preserve" width="30" height="25"><rect id="backgroundrect" width="100%" height="100%" x="0" y="0" fill="none" stroke="none"/>
<style type="text/css">
	.st0{fill:none;}
</style>

<g class="currentLayer" style=""><title>Layer 1</title><g id="svg_1" class="selected" fill="#ffffff" fill-opacity="1">
	<polygon class="st0" points="8.6,11.29 9.01,14.9 11.47,14.9 11.46,11.29  " id="svg_2" fill="#ffffff" fill-opacity="1"/>
	<polygon class="st0" points="11.44,5.87 7.99,5.87 8.4,9.5 11.45,9.5  " id="svg_3" fill="#ffffff" fill-opacity="1"/>
	<polygon class="st0" points="6.19,5.87 2.69,5.87 3.54,9.5 6.6,9.5  " id="svg_4" fill="#ffffff" fill-opacity="1"/>
	<polygon class="st0" points="3.96,11.29 4.81,14.9 7.2,14.9 6.8,11.29  " id="svg_5" fill="#ffffff" fill-opacity="1"/>
	<polygon class="st0" points="13.27,14.9 15.56,14.9 16,11.29 13.25,11.29  " id="svg_6" fill="#ffffff" fill-opacity="1"/>
	<polygon class="st0" points="18.03,9.5 21.24,9.5 22.14,5.87 18.48,5.87  " id="svg_7" fill="#ffffff" fill-opacity="1"/>
	<polygon class="st0" points="13.25,9.5 16.22,9.5 16.67,5.87 13.24,5.87  " id="svg_8" fill="#ffffff" fill-opacity="1"/>
	<polygon class="st0" points="17.36,14.9 19.9,14.9 20.79,11.29 17.81,11.29  " id="svg_9" fill="#ffffff" fill-opacity="1"/>
	<path d="M28.53,0.5h-4.35c-0.43,0-0.79,0.3-0.88,0.71c0,0.01-0.01,0.02-0.01,0.03l-0.72,2.9h-21c-0.55,0-1,0.39-1,0.87   c0,0.03,0,0.07,0.01,0.1c0,0.08,0.01,0.15,0.03,0.23l2.5,10.62c0.11,0.48,0.56,0.79,1.03,0.75v0h15.33l-0.71,2.87H4.26   c-0.39,0-0.71,0.39-0.71,0.87c0,0.48,0.32,0.87,0.71,0.87h1.81c-0.55,0.28-0.93,0.85-0.93,1.51c0,0.93,0.76,1.69,1.69,1.69   s1.69-0.76,1.69-1.69c0-0.66-0.38-1.23-0.93-1.51h9.47c-0.55,0.28-0.93,0.85-0.93,1.51c0,0.93,0.76,1.69,1.69,1.69   c0.93,0,1.69-0.76,1.69-1.69c0-0.66-0.38-1.23-0.93-1.51h0.98c0.25,0,0.47-0.16,0.6-0.4c0.06-0.09,0.1-0.18,0.13-0.29L24.82,2.3   h3.71c0.5,0,0.9-0.4,0.9-0.9C29.43,0.9,29.03,0.5,28.53,0.5z M2.69,5.87h3.5L6.6,9.5H3.54L2.69,5.87z M4.81,14.9l-0.85-3.6H6.8   l0.41,3.6H4.81z M7.99,5.87h3.45l0.01,3.63H8.4L7.99,5.87z M9.01,14.9l-0.41-3.6h2.86l0.01,3.6H9.01z M15.56,14.9h-2.29l-0.01-3.6   H16L15.56,14.9z M16.22,9.5h-2.97l-0.01-3.63h3.44L16.22,9.5z M19.9,14.9h-2.54l0.45-3.6h2.99L19.9,14.9z M21.24,9.5h-3.21   l0.45-3.63h3.66L21.24,9.5z" id="svg_10" fill="#ffffff" fill-opacity="1"/>
</g></g></svg>