<?xml version="1.0" encoding="utf-8"?>
<!-- Generator: Adobe Illustrator 26.5.0, SVG Export Plug-In . SVG Version: 6.00 Build 0)  -->
<svg version="1.1" id="Capa_1" xmlns="http://www.w3.org/2000/svg" xmlns:xlink="http://www.w3.org/1999/xlink" x="0px" y="0px"
	 viewBox="0 0 180 180" style="enable-background:new 0 0 180 180;" xml:space="preserve">
<style type="text/css">
	.st0{fill:#E6EBF1;}
</style>
<path class="st0" d="M174.4,15.2h-27.2c-2.7,0-4.9,1.9-5.5,4.4c0,0.1,0,0.1-0.1,0.2l-4.5,18.1H6.2c-3.4,0-6.2,2.4-6.2,5.4
	c0,0.2,0,0.4,0,0.6c0,0.5,0,1,0.2,1.4l15.6,66.2c0.7,3,3.5,5,6.4,4.7v0h95.6l-4.4,17.9H23c-2.4,0-4.4,2.4-4.4,5.4c0,3,2,5.4,4.4,5.4
	h11.3c-3.5,1.7-5.8,5.3-5.8,9.4c0,5.8,4.7,10.6,10.5,10.6c5.8,0,10.5-4.7,10.5-10.6c0-4.1-2.4-7.7-5.8-9.4h59.1
	c-3.5,1.7-5.8,5.3-5.8,9.4c0,5.8,4.7,10.6,10.5,10.6c5.8,0,10.6-4.7,10.6-10.6c0-4.1-2.4-7.7-5.8-9.4h6.1c1.6,0,2.9-1,3.7-2.5
	c0.4-0.5,0.6-1.2,0.8-1.8l28.3-114.2h23.2c3.1,0,5.6-2.5,5.6-5.6C180,17.7,177.5,15.2,174.4,15.2z M13.2,48.6h21.8l2.5,22.7H18.5
	L13.2,48.6z M26.5,104.9l-5.3-22.5h17.7l2.5,22.5H26.5z M46.3,48.6h21.5l0.1,22.7h-19L46.3,48.6z M52.6,104.9l-2.5-22.5h17.8
	l0.1,22.5H52.6z M93.5,104.9H79.2l-0.1-22.5h17.1L93.5,104.9z M97.6,71.3H79.1L79,48.6h21.4L97.6,71.3z M120.6,104.9h-15.8l2.8-22.5
	h18.6L120.6,104.9z M128.9,71.3h-20l2.8-22.7h22.8L128.9,71.3z"/>
</svg>
