<?xml version="1.0" encoding="UTF-8"?>
<svg xmlns="http://www.w3.org/2000/svg" xmlns:xlink="http://www.w3.org/1999/xlink" width="px" height="px" viewBox="0 0 40 40" version="1.1">
<g id="surface1">
<path style=" stroke:none;fill-rule:nonzero;fill:rgb(100%,100%,100%);fill-opacity:1;" d="M 39.75 20 C 39.75 30.90625 30.90625 39.75 20 39.75 C 9.09375 39.75 0.25 30.90625 0.25 20 C 0.25 9.09375 9.09375 0.25 20 0.25 C 30.90625 0.25 39.75 9.09375 39.75 20 Z M 39.75 20 "/>
<path style=" stroke:none;fill-rule:nonzero;fill:rgb(15.686275%,58.431373%,28.235294%);fill-opacity:1;" d="M 20 0.25 C 9.101562 0.25 0.25 9.101562 0.25 20 C 0.25 30.898438 9.101562 39.75 20 39.75 C 30.898438 39.75 39.75 30.898438 39.75 20 C 39.75 9.101562 30.898438 0.25 20 0.25 Z M 10.949219 12.449219 C 11.25 12.148438 11.601562 11.601562 12.101562 11.800781 C 12.648438 12 12.351562 12.648438 12.398438 13.101562 C 12.449219 13.601562 12.449219 14.148438 12.5 14.648438 C 12.550781 15 12.75 15.300781 13.148438 15.300781 C 13.550781 15.300781 13.699219 14.949219 13.699219 14.601562 C 13.75 13.800781 13.75 13 13.75 12.199219 C 13.75 11.699219 13.75 11.148438 13.898438 10.648438 C 14.101562 10.050781 14.648438 9.75 15.25 9.800781 C 15.949219 9.851562 15.75 10.5 15.75 10.898438 C 15.800781 12.550781 15.75 14.199219 15.800781 15.851562 C 15.800781 16.351562 15.851562 16.898438 16.449219 16.949219 C 17.101562 16.949219 17.101562 16.351562 17.101562 15.898438 C 17.148438 13.699219 17.101562 11.449219 17.148438 9.199219 C 17.199219 7.300781 17.5 7 19.449219 6.949219 C 19.800781 6.949219 20.101562 6.949219 20.449219 6.949219 C 22.300781 7 22.601562 7.300781 22.601562 9.148438 C 22.601562 11.351562 22.601562 13.5 22.601562 15.699219 C 22.601562 16.199219 22.5 16.898438 23.199219 16.949219 C 24.050781 17 23.898438 16.199219 23.898438 15.648438 C 23.949219 14.101562 23.898438 12.550781 23.949219 10.949219 C 23.949219 10.449219 23.800781 9.75 24.550781 9.75 C 25.25 9.699219 25.898438 10.101562 25.949219 10.898438 C 26 12 26 13.101562 26.050781 14.148438 C 26.050781 14.601562 26.050781 15.199219 26.648438 15.25 C 27.300781 15.25 27.300781 14.648438 27.351562 14.199219 C 27.351562 14.101562 27.351562 14 27.351562 13.898438 C 27.449219 13.199219 27 12.050781 27.75 11.800781 C 28.601562 11.5 29.148438 12.601562 29.648438 13.199219 C 32 15.851562 32.800781 19.050781 32.800781 22.550781 C 32.800781 23.851562 32.25 24.300781 31 24.300781 C 27.300781 24.25 23.601562 24.300781 19.898438 24.300781 C 16.25 24.300781 12.601562 24.300781 8.949219 24.300781 C 7.101562 24.300781 7.101562 24.199219 7.050781 22.351562 C 7 18.5 8.25 15.199219 10.949219 12.449219 Z M 32.949219 29.25 C 32.25 29.351562 31.550781 29.398438 30.851562 29.398438 C 23.550781 29.398438 16.25 29.398438 8.949219 29.398438 C 8.398438 29.398438 7.800781 29.398438 7.25 29.300781 C 6.101562 29.148438 5.398438 28.550781 5.449219 27.300781 C 5.550781 26.148438 6.300781 25.648438 7.398438 25.648438 C 8.050781 25.601562 8.75 25.648438 9.398438 25.648438 C 12.949219 25.648438 16.5 25.648438 20.050781 25.648438 C 23.898438 25.648438 27.699219 25.648438 31.550781 25.648438 C 32 25.648438 32.398438 25.648438 32.851562 25.699219 C 33.800781 25.800781 34.449219 26.398438 34.5 27.351562 C 34.550781 28.398438 34 29.101562 32.949219 29.25 Z M 32.949219 29.25 "/>
</g>
</svg>
