<?xml version="1.0" encoding="UTF-8"?>
<svg xmlns="http://www.w3.org/2000/svg" xmlns:xlink="http://www.w3.org/1999/xlink" width="px" height="px" viewBox="0 0 40 40" version="1.1">
<g id="surface1">
<path style=" stroke:none;fill-rule:nonzero;fill:rgb(100%,100%,100%);fill-opacity:1;" d="M 39.75 20 C 39.75 30.90625 30.90625 39.75 20 39.75 C 9.09375 39.75 0.25 30.90625 0.25 20 C 0.25 9.09375 9.09375 0.25 20 0.25 C 30.90625 0.25 39.75 9.09375 39.75 20 Z M 39.75 20 "/>
<path style=" stroke:none;fill-rule:nonzero;fill:rgb(76.470588%,14.509804%,15.294118%);fill-opacity:1;" d="M 20.550781 20.648438 L 21.25 17.699219 L 17.5 22.148438 L 19.851562 22.148438 L 19.101562 25.148438 L 22.898438 20.648438 Z M 20.550781 20.648438 "/>
<path style=" stroke:none;fill-rule:nonzero;fill:rgb(76.470588%,14.509804%,15.294118%);fill-opacity:1;" d="M 20 0.25 C 9.101562 0.25 0.25 9.101562 0.25 20 C 0.25 30.898438 9.101562 39.75 20 39.75 C 30.898438 39.75 39.75 30.898438 39.75 20 C 39.75 9.101562 30.898438 0.25 20 0.25 Z M 31.898438 28.800781 C 30.148438 31.050781 27.800781 32.25 24.898438 32.050781 C 22.101562 31.851562 20.199219 30.351562 19.199219 27.75 C 19.101562 27.550781 19 26.851562 18.800781 26.75 L 18.75 26.699219 L 15.5 25 C 15.101562 24.648438 14.800781 23.949219 14.800781 23.398438 L 14.800781 19.898438 C 14.25 19.898438 13.851562 19.449219 13.851562 18.949219 L 13.851562 17.351562 C 13.851562 16.800781 14.300781 16.398438 14.800781 16.398438 L 15.351562 16.398438 L 15.351562 12.449219 C 15.351562 11.800781 15.898438 11.25 16.550781 11.25 C 17.199219 11.25 17.75 11.800781 17.75 12.449219 L 17.75 16.398438 L 22.648438 16.398438 L 22.648438 12.449219 C 22.648438 11.800781 23.199219 11.25 23.851562 11.25 C 24.5 11.25 25.050781 11.800781 25.050781 12.449219 L 25.050781 16.398438 L 25.601562 16.398438 C 26.148438 16.398438 26.550781 16.851562 26.550781 17.351562 L 26.550781 18.949219 C 26.550781 19.5 26.101562 19.898438 25.601562 19.898438 L 25.601562 23.398438 C 25.601562 23.949219 25.300781 24.648438 24.898438 25 L 21.800781 26.648438 C 21.5 26.949219 21.699219 27.300781 22 27.800781 C 23.101562 29.449219 25.199219 30.050781 27.25 29.199219 C 30.601562 27.800781 31.601562 24.851562 31.800781 21.601562 C 32.199219 16 28.351562 10.851562 22.898438 9.398438 C 17.550781 8 11.898438 10.550781 9.351562 15.550781 C 6.800781 20.550781 8.148438 26.601562 12.550781 30.148438 C 13.050781 30.550781 13.648438 30.898438 14.148438 31.300781 C 14.648438 31.699219 14.75 32.25 14.449219 32.800781 C 14.101562 33.398438 13.5 33.648438 12.898438 33.351562 C 12.25 33.050781 11.648438 32.699219 11.101562 32.25 C 6.300781 28.199219 4.601562 23.101562 6.050781 17.050781 C 7.351562 11.75 12.25 7.398438 17.550781 6.699219 C 23.851562 5.851562 28.800781 8.148438 32.300781 13.351562 C 35.351562 17.851562 35.050781 24.699219 31.898438 28.800781 Z M 31.898438 28.800781 "/>
</g>
</svg>
