<?xml version="1.0" encoding="UTF-8"?>
<svg xmlns="http://www.w3.org/2000/svg" xmlns:xlink="http://www.w3.org/1999/xlink" width="px" height="px" viewBox="0 0 40 40" version="1.1">
<g id="surface1">
<path style=" stroke:none;fill-rule:nonzero;fill:rgb(100%,100%,100%);fill-opacity:1;" d="M 39.75 20 C 39.75 30.90625 30.90625 39.75 20 39.75 C 9.09375 39.75 0.25 30.90625 0.25 20 C 0.25 9.09375 9.09375 0.25 20 0.25 C 30.90625 0.25 39.75 9.09375 39.75 20 Z M 39.75 20 "/>
<path style=" stroke:none;fill-rule:nonzero;fill:rgb(83.529412%,49.019608%,12.156863%);fill-opacity:1;" d="M 23.601562 9 C 18.898438 9 15.101562 12.75 15.101562 17.449219 C 15.101562 22.148438 18.898438 25.898438 23.601562 25.898438 C 28.300781 25.898438 32.101562 22.148438 32.101562 17.449219 C 32.101562 12.75 28.300781 9 23.601562 9 Z M 28.25 13.050781 C 27.949219 13.449219 27.351562 13.5 26.949219 13.199219 C 26.5 12.851562 25.949219 12.550781 25.398438 12.351562 C 24.851562 12.148438 24.25 12.050781 23.648438 12.050781 C 22.199219 12.050781 20.898438 12.601562 19.898438 13.550781 C 18.949219 14.5 18.300781 15.75 18.25 17.199219 C 18.25 17.699219 17.800781 18.101562 17.300781 18.050781 C 16.800781 18.050781 16.398438 17.601562 16.398438 17.101562 C 16.5 15.148438 17.300781 13.449219 18.601562 12.199219 C 19.898438 10.949219 21.648438 10.199219 23.601562 10.199219 C 24.398438 10.199219 25.199219 10.351562 25.949219 10.601562 C 26.699219 10.851562 27.398438 11.25 28.050781 11.75 C 28.5 12.101562 28.550781 12.648438 28.25 13.050781 Z M 28.25 13.050781 "/>
<path style=" stroke:none;fill-rule:nonzero;fill:rgb(83.529412%,49.019608%,12.156863%);fill-opacity:1;" d="M 20 0.25 C 9.101562 0.25 0.25 9.101562 0.25 20 C 0.25 30.898438 9.101562 39.75 20 39.75 C 30.898438 39.75 39.75 30.898438 39.75 20 C 39.75 9.101562 30.898438 0.25 20 0.25 Z M 23.601562 28.898438 C 21.351562 28.898438 19.199219 28.25 17.398438 27.101562 L 11.050781 33.5 C 10.101562 34.449219 8.5 34.449219 7.550781 33.5 C 6.601562 32.550781 6.601562 31 7.550781 30.050781 L 13.898438 23.75 C 12.699219 21.949219 12 19.800781 12 17.449219 C 12 11.101562 17.199219 5.949219 23.550781 5.949219 C 29.898438 5.949219 35.101562 11.101562 35.101562 17.449219 C 35.199219 23.75 30 28.898438 23.601562 28.898438 Z M 23.601562 28.898438 "/>
</g>
</svg>
