<?xml version="1.0" encoding="UTF-8"?>
<svg xmlns="http://www.w3.org/2000/svg" xmlns:xlink="http://www.w3.org/1999/xlink" width="px" height="px" viewBox="0 0 40 40" version="1.1">
<g id="surface1">
<path style=" stroke:none;fill-rule:nonzero;fill:rgb(100%,100%,100%);fill-opacity:1;" d="M 39.75 20 C 39.75 30.90625 30.90625 39.75 20 39.75 C 9.09375 39.75 0.25 30.90625 0.25 20 C 0.25 9.09375 9.09375 0.25 20 0.25 C 30.90625 0.25 39.75 9.09375 39.75 20 Z M 39.75 20 "/>
<path style=" stroke:none;fill-rule:nonzero;fill:rgb(92.54902%,74.901961%,8.627451%);fill-opacity:1;" d="M 20 0.25 C 9.101562 0.25 0.25 9.101562 0.25 20 C 0.25 25 2.101562 29.550781 5.148438 33 L 18.148438 20 C 18 19.851562 17.800781 19.550781 17.699219 19.300781 L 14 20.851562 L 13.75 20.148438 L 17.449219 18.601562 C 17.300781 18.300781 17.25 17.949219 17.25 17.601562 L 10.550781 17.601562 L 10.601562 16.851562 L 17.25 16.800781 C 17.25 16.449219 17.351562 16.101562 17.449219 15.800781 L 13.75 14.25 L 14 13.550781 L 17.699219 15.101562 C 17.851562 14.800781 18.050781 14.5 18.300781 14.25 L 13.550781 9.5 L 14.050781 9 L 18.800781 13.75 C 19.050781 13.5 19.300781 13.300781 19.601562 13.199219 L 18.101562 9.449219 L 18.800781 9.199219 L 20.351562 12.898438 C 20.648438 12.75 21 12.699219 21.351562 12.699219 L 21.351562 6.101562 L 22.101562 6.050781 L 22.148438 12.699219 C 22.449219 12.75 22.800781 12.851562 23.148438 12.898438 L 24.699219 9.199219 L 25.351562 9.5 L 23.851562 13.148438 C 24.050781 13.300781 24.300781 13.449219 24.550781 13.601562 L 30.351562 7.800781 L 31.199219 8.648438 L 25.398438 14.5 C 25.550781 14.699219 25.699219 14.949219 25.851562 15.199219 L 29.5 13.699219 L 29.800781 14.351562 L 26.101562 15.898438 C 26.199219 16.25 26.25 16.601562 26.300781 16.898438 L 32.949219 16.949219 L 32.898438 17.699219 L 26.300781 17.699219 C 26.300781 18.050781 26.199219 18.398438 26.101562 18.699219 L 29.800781 20.25 L 29.550781 20.949219 L 25.800781 19.449219 C 25.648438 19.75 25.5 20 25.25 20.25 L 30 25 L 29.5 25.5 L 24.75 20.75 C 24.5 21 24.199219 21.199219 23.898438 21.351562 L 25.449219 25.050781 L 24.75 25.300781 L 23.199219 21.601562 C 22.898438 21.75 22.550781 21.800781 22.199219 21.800781 L 22.148438 28.449219 L 21.398438 28.5 L 21.398438 21.75 C 21.050781 21.75 20.699219 21.648438 20.398438 21.550781 L 18.851562 25.25 L 18.148438 25 L 19.699219 21.300781 C 19.449219 21.199219 19.199219 21.050781 19 20.851562 L 6 33.898438 C 9.550781 37.5 14.5 39.75 20 39.75 C 30.898438 39.75 39.75 30.898438 39.75 20 C 39.75 9.101562 30.898438 0.25 20 0.25 Z M 20 0.25 "/>
</g>
</svg>
