<?xml version="1.0" encoding="UTF-8"?>
<svg xmlns="http://www.w3.org/2000/svg" xmlns:xlink="http://www.w3.org/1999/xlink" width="px" height="px" viewBox="0 0 40 40" version="1.1">
<g id="surface1">
<path style=" stroke:none;fill-rule:nonzero;fill:rgb(100%,100%,100%);fill-opacity:1;" d="M 39.75 20 C 39.75 30.90625 30.90625 39.75 20 39.75 C 9.09375 39.75 0.25 30.90625 0.25 20 C 0.25 9.09375 9.09375 0.25 20 0.25 C 30.90625 0.25 39.75 9.09375 39.75 20 Z M 39.75 20 "/>
<path style=" stroke:none;fill-rule:nonzero;fill:rgb(24.705882%,17.647059%,12.156863%);fill-opacity:1;" d="M 15.300781 9.601562 L 24.699219 9.601562 L 24.699219 12.851562 L 15.300781 12.851562 Z M 15.300781 9.601562 "/>
<path style=" stroke:none;fill-rule:nonzero;fill:rgb(24.705882%,17.647059%,12.156863%);fill-opacity:1;" d="M 20 0.25 C 9.101562 0.25 0.25 9.101562 0.25 20 C 0.25 30.898438 9.101562 39.75 20 39.75 C 30.898438 39.75 39.75 30.898438 39.75 20 C 39.75 9.101562 30.898438 0.25 20 0.25 Z M 12.449219 11.300781 L 9.75 10.898438 C 9.5 10.851562 9.25 10.601562 9.25 10.351562 L 9.25 10.148438 C 9.25 9.898438 9.449219 9.648438 9.75 9.648438 L 12.449219 9.648438 Z M 26.601562 11.351562 C 26.601562 11.601562 26.398438 11.851562 26.148438 11.851562 L 25.699219 11.851562 L 25.699219 13.300781 C 25.699219 13.550781 25.5 13.800781 25.199219 13.800781 L 24.75 13.800781 L 23 15.800781 L 23 19.25 C 23 19.5 22.800781 19.75 22.5 19.75 L 22.300781 19.75 L 22.300781 23.898438 C 22.300781 24.148438 22.101562 24.398438 21.800781 24.398438 L 21.050781 24.398438 L 21.050781 27.5 C 21.050781 27.75 20.851562 28 20.550781 28 L 20.648438 28 L 20.648438 32.351562 C 20.648438 32.601562 20.75 32.898438 20.898438 33.050781 C 21.050781 33.148438 21.101562 33.449219 21 33.699219 L 20.800781 34.5 C 20.75 34.75 20.449219 34.949219 20.199219 34.949219 L 19.800781 34.949219 C 19.550781 34.949219 19.25 34.75 19.199219 34.5 L 19 33.699219 C 18.949219 33.449219 19 33.148438 19.101562 33.050781 C 19.25 32.949219 19.351562 32.648438 19.351562 32.351562 L 19.351562 28 L 19.449219 28 C 19.199219 28 18.949219 27.800781 18.949219 27.5 L 18.949219 24.351562 L 18.199219 24.351562 C 17.949219 24.351562 17.699219 24.148438 17.699219 23.851562 L 17.699219 19.75 L 17.5 19.75 C 17.25 19.75 17 19.550781 17 19.25 L 17 15.800781 L 15.25 13.800781 L 14.800781 13.800781 C 14.550781 13.800781 14.300781 13.601562 14.300781 13.300781 L 14.300781 11.851562 L 13.851562 11.851562 C 13.601562 11.851562 13.398438 11.648438 13.398438 11.351562 L 13.398438 9.5 C 13.398438 9.25 13.601562 9 13.851562 9 C 14.101562 9 14.300781 9 14.300781 9 L 14.300781 7.898438 C 14.300781 7.648438 14.5 7.398438 14.800781 7.398438 L 25.148438 7.398438 C 25.398438 7.398438 25.648438 7.601562 25.648438 7.898438 L 25.648438 9 C 25.648438 9 25.851562 9 26.101562 9 C 26.351562 9 26.550781 9.199219 26.550781 9.5 L 26.550781 11.351562 Z M 30.75 10.300781 C 30.75 10.550781 30.550781 10.800781 30.25 10.851562 L 27.550781 11.25 L 27.550781 9.601562 L 30.25 9.601562 C 30.5 9.601562 30.75 9.800781 30.75 10.101562 Z M 30.75 10.300781 "/>
<path style=" stroke:none;fill-rule:nonzero;fill:rgb(24.705882%,17.647059%,12.156863%);fill-opacity:1;" d="M 17.949219 16.75 L 22.050781 16.75 L 22.050781 18.75 L 17.949219 18.75 Z M 17.949219 16.75 "/>
</g>
</svg>
