<?xml version="1.0" encoding="UTF-8"?>
<svg xmlns="http://www.w3.org/2000/svg" xmlns:xlink="http://www.w3.org/1999/xlink" width="px" height="px" viewBox="0 0 40 40" version="1.1">
<g id="surface1">
<path style=" stroke:none;fill-rule:nonzero;fill:rgb(100%,100%,100%);fill-opacity:1;" d="M 39.75 20 C 39.75 30.90625 30.90625 39.75 20 39.75 C 9.09375 39.75 0.25 30.90625 0.25 20 C 0.25 9.09375 9.09375 0.25 20 0.25 C 30.90625 0.25 39.75 9.09375 39.75 20 Z M 39.75 20 "/>
<path style=" stroke:none;fill-rule:nonzero;fill:rgb(50.196078%,12.941176%,42.352941%);fill-opacity:1;" d="M 20 0.25 C 9.101562 0.25 0.25 9.101562 0.25 20 C 0.25 30.898438 9.101562 39.75 20 39.75 C 30.898438 39.75 39.75 30.898438 39.75 20 C 39.75 9.101562 30.898438 0.25 20 0.25 Z M 32.398438 30.101562 C 32.398438 31.199219 31.5 32.148438 30.351562 32.148438 L 25.949219 32.148438 C 24.851562 32.148438 23.898438 31.25 23.898438 30.101562 L 23.898438 25.699219 C 23.898438 24.601562 24.800781 23.648438 25.949219 23.648438 L 27.148438 23.648438 L 27.148438 19.398438 L 12.300781 19.398438 L 12.300781 23.648438 L 14.050781 23.648438 C 15.148438 23.648438 16.101562 24.550781 16.101562 25.699219 L 16.101562 30.101562 C 16.101562 31.199219 15.199219 32.148438 14.050781 32.148438 L 9.648438 32.148438 C 8.550781 32.148438 7.601562 31.25 7.601562 30.101562 L 7.601562 25.699219 C 7.601562 24.601562 8.5 23.648438 9.648438 23.648438 L 11.050781 23.648438 L 11.050781 18.800781 C 11.050781 18.449219 11.351562 18.148438 11.699219 18.148438 L 19.199219 18.148438 L 19.199219 13.898438 L 17.601562 13.898438 C 16.5 13.898438 15.550781 13 15.550781 11.851562 L 15.550781 7.449219 C 15.550781 6.351562 16.449219 5.398438 17.601562 5.398438 L 22 5.398438 C 23.101562 5.398438 24.050781 6.300781 24.050781 7.449219 L 24.050781 11.851562 C 24.050781 12.949219 23.148438 13.898438 22 13.898438 L 20.398438 13.898438 L 20.398438 18.148438 L 27.699219 18.148438 C 28.050781 18.148438 28.351562 18.449219 28.351562 18.800781 L 28.351562 23.648438 L 30.351562 23.648438 C 31.449219 23.648438 32.398438 24.550781 32.398438 25.699219 Z M 32.398438 30.101562 "/>
</g>
</svg>
