<?xml version="1.0" encoding="UTF-8"?>
<svg xmlns="http://www.w3.org/2000/svg" xmlns:xlink="http://www.w3.org/1999/xlink" width="px" height="px" viewBox="0 0 40 40" version="1.1">
<g id="surface1">
<path style=" stroke:none;fill-rule:nonzero;fill:rgb(100%,100%,100%);fill-opacity:1;" d="M 39.75 20 C 39.75 30.90625 30.90625 39.75 20 39.75 C 9.09375 39.75 0.25 30.90625 0.25 20 C 0.25 9.09375 9.09375 0.25 20 0.25 C 30.90625 0.25 39.75 9.09375 39.75 20 Z M 39.75 20 "/>
<path style=" stroke:none;fill-rule:nonzero;fill:rgb(33.72549%,56.862745%,80.392157%);fill-opacity:1;" d="M 22.800781 19.300781 C 22.800781 18.601562 22.851562 18.75 22.550781 18.300781 C 22.398438 18.050781 22.199219 17.800781 22.050781 17.550781 C 21.851562 17.300781 21.75 17.050781 21.550781 16.800781 L 17.648438 16.800781 L 17.648438 20.550781 L 22.851562 20.550781 C 22.800781 20.148438 22.800781 19.75 22.800781 19.300781 Z M 22.800781 19.300781 "/>
<path style=" stroke:none;fill-rule:nonzero;fill:rgb(33.72549%,56.862745%,80.392157%);fill-opacity:1;" d="M 24.550781 26.601562 C 23.601562 26.550781 23.648438 27.398438 23.25 27.398438 C 20.449219 27.398438 21.601562 27.5 20.949219 26.898438 C 20.800781 26.75 20.601562 26.648438 20.300781 26.601562 C 19.601562 26.550781 19.449219 26.949219 19.199219 27.351562 L 17.050781 27.351562 C 16.851562 26.550781 15.851562 26.199219 15.199219 26.75 C 15 26.898438 14.898438 27.25 14.800781 27.351562 L 12.898438 27.351562 C 12.550781 26.300781 11.199219 26.300781 10.898438 27.351562 L 8.449219 27.351562 C 8.300781 27.101562 8.300781 26.949219 8.050781 26.800781 C 7.351562 26.25 6.351562 26.75 6.351562 27.601562 C 6.351562 28.449219 7.351562 29 8.050781 28.449219 C 8.25 28.300781 8.300781 28.101562 8.449219 27.898438 L 10.851562 27.898438 C 11.101562 28.300781 11.25 28.648438 11.851562 28.699219 C 12.5 28.699219 12.648438 28.351562 12.898438 27.949219 L 14.75 27.949219 C 15 27.949219 14.800781 28.101562 15.199219 28.5 C 15.601562 28.898438 16.25 28.949219 16.699219 28.601562 C 16.949219 28.398438 16.949219 28.25 17.148438 28 L 19.25 28 C 19.398438 28.199219 19.398438 28.351562 19.601562 28.550781 C 19.75 28.699219 20 28.800781 20.300781 28.800781 C 20.949219 28.800781 21.050781 28.449219 21.351562 28 L 23.5 28 C 23.648438 28.199219 23.800781 28.851562 24.648438 28.800781 C 25.800781 28.601562 25.851562 26.648438 24.550781 26.601562 Z M 7.550781 28.148438 C 6.898438 28.398438 6.5 27.398438 7.199219 27.148438 C 7.851562 26.898438 8.148438 27.898438 7.550781 28.148438 Z M 12.050781 28.101562 C 11.351562 28.351562 11 27.351562 11.699219 27.101562 C 12.351562 26.949219 12.648438 27.898438 12.050781 28.101562 Z M 16.199219 28.199219 C 15.5 28.449219 15 27.449219 15.75 27.101562 C 16.5 26.75 16.898438 27.898438 16.199219 28.199219 Z M 20.398438 28.148438 C 19.75 28.398438 19.398438 27.351562 20.101562 27.148438 C 20.699219 26.898438 21.050781 27.898438 20.398438 28.148438 Z M 24.699219 28.101562 C 24.101562 28.351562 23.601562 27.449219 24.300781 27.148438 C 24.898438 26.851562 25.300781 27.851562 24.699219 28.101562 Z M 24.699219 28.101562 "/>
<path style=" stroke:none;fill-rule:nonzero;fill:rgb(33.72549%,56.862745%,80.392157%);fill-opacity:1;" d="M 20 0.25 C 9.101562 0.25 0.25 9.101562 0.25 20 C 0.25 30.898438 9.101562 39.75 20 39.75 C 30.898438 39.75 39.75 30.898438 39.75 20 C 39.75 9.101562 30.898438 0.25 20 0.25 Z M 19.148438 11.949219 C 19.25 11.699219 20.148438 9.800781 20.300781 9.699219 C 20.398438 9.648438 20.5 9.601562 20.648438 9.5 L 26.75 5.851562 L 26.75 8.148438 C 26.5 8.300781 26.300781 8.449219 26.050781 8.648438 C 25.800781 8.851562 25.601562 8.949219 25.351562 9.148438 C 24.898438 9.5 21.398438 12.101562 21.351562 12.25 L 21.351562 15.101562 C 20.648438 15.148438 18.398438 15.101562 17.550781 15.101562 Z M 7.898438 18.699219 L 9.351562 18.699219 L 9.351562 18.101562 C 9.601562 18 10.25 18.050781 10.648438 18.101562 L 10.949219 18.101562 C 10.949219 18.101562 11 18.148438 11 18.101562 C 11 18.101562 11.050781 18.101562 11.050781 18.101562 L 13.5 18.148438 L 13.5 18.851562 L 16.550781 18.699219 C 16.648438 18.5 16.601562 16.398438 16.601562 15.949219 L 22.199219 16 C 22.398438 16.300781 23.898438 18.851562 23.949219 19.050781 C 24.050781 19.398438 24 23.25 23.949219 23.800781 L 7.949219 23.800781 L 7.949219 21.449219 L 13.550781 21.449219 L 13.550781 20.699219 L 8 20.699219 C 7.800781 20.351562 7.851562 18.851562 7.898438 18.699219 Z M 25.851562 29.648438 C 25.5 29.75 25.851562 29.699219 25.550781 29.851562 L 5.800781 29.851562 C 5.550781 29.699219 5.851562 29.75 5.5 29.648438 C 4.148438 29.300781 4.101562 28.351562 3.898438 28 L 3.898438 27.25 C 3.949219 27.199219 3.898438 27.25 3.949219 27.148438 C 3.949219 27.148438 4 27.101562 4 27.050781 L 4.199219 26.601562 C 4.800781 25.550781 5.5 25.851562 5.75 25.449219 L 25.601562 25.449219 C 25.851562 25.800781 25.75 25.550781 26.300781 25.800781 C 27 26.148438 27.5 26.851562 27.5 27.75 C 27.5 28.851562 26.800781 29.398438 25.851562 29.648438 Z M 27.699219 8.050781 C 27.449219 7.648438 27.5 7.550781 27.5 7 C 27.5 6.601562 27.5 6.199219 27.5 5.800781 C 27.699219 5.699219 28 5.351562 28.25 5.148438 C 28.398438 5.050781 28.351562 5.050781 28.5 4.949219 C 28.699219 5.148438 32 11.300781 32.300781 11.75 C 32.949219 12.851562 33.601562 14.050781 34.199219 15.148438 L 35.601562 17.699219 C 35.699219 17.949219 35.898438 18.300781 36.050781 18.5 L 34.199219 18.5 L 32.351562 15.5 C 31.75 14.5 31.101562 13.5 30.5 12.5 C 29.699219 11.199219 28.550781 9.300781 27.699219 8.050781 Z M 35.851562 23.800781 C 35.550781 24.148438 35.101562 24.300781 34.5 24.398438 C 33.898438 24.449219 33.300781 24.351562 32.75 24.25 C 32.449219 24.199219 31.449219 23.949219 31.300781 23.699219 C 33.648438 23.351562 34.5 22.101562 34.699219 19.851562 C 34.949219 19.75 35.800781 19.800781 36.050781 19.851562 C 36.25 20.25 36.300781 21.148438 36.398438 21.449219 L 36.398438 22.449219 C 36.25 22.75 36.351562 23.300781 35.851562 23.800781 Z M 35.851562 23.800781 "/>
</g>
</svg>
