<?xml version="1.0" encoding="UTF-8"?>
<svg xmlns="http://www.w3.org/2000/svg" xmlns:xlink="http://www.w3.org/1999/xlink" width="px" height="px" viewBox="0 0 40 40" version="1.1">
<g id="surface1">
<path style=" stroke:none;fill-rule:nonzero;fill:rgb(100%,100%,100%);fill-opacity:1;" d="M 39.75 20 C 39.75 30.90625 30.90625 39.75 20 39.75 C 9.09375 39.75 0.25 30.90625 0.25 20 C 0.25 9.09375 9.09375 0.25 20 0.25 C 30.90625 0.25 39.75 9.09375 39.75 20 Z M 39.75 20 "/>
<path style=" stroke:none;fill-rule:nonzero;fill:rgb(75.686275%,5.490196%,10.196078%);fill-opacity:1;" d="M 18.898438 19.449219 C 18.648438 19.550781 18.550781 19.699219 18.550781 19.851562 C 18.550781 20 18.601562 20.25 18.699219 20.5 L 20.148438 23.550781 C 20.25 23.699219 20.351562 23.851562 20.550781 23.898438 C 20.699219 23.949219 20.898438 23.949219 21.050781 23.898438 C 21.199219 23.851562 21.300781 23.699219 21.398438 23.550781 C 21.449219 23.398438 21.449219 23.199219 21.351562 23.050781 L 19.851562 20 C 19.699219 19.75 19.601562 19.550781 19.449219 19.449219 C 19.300781 19.351562 19.148438 19.351562 18.898438 19.449219 Z M 18.898438 19.449219 "/>
<path style=" stroke:none;fill-rule:nonzero;fill:rgb(75.686275%,5.490196%,10.196078%);fill-opacity:1;" d="M 9.148438 19.898438 C 8.898438 20 8.800781 20.148438 8.800781 20.300781 C 8.800781 20.449219 8.851562 20.699219 8.949219 20.949219 L 10.398438 24 C 10.5 24.148438 10.601562 24.300781 10.75 24.351562 C 10.898438 24.398438 11.101562 24.398438 11.25 24.351562 C 11.398438 24.300781 11.5 24.148438 11.601562 23.949219 C 11.648438 23.800781 11.648438 23.601562 11.550781 23.449219 L 10.101562 20.398438 C 9.949219 20.148438 9.851562 19.949219 9.699219 19.851562 C 9.550781 19.800781 9.398438 19.800781 9.148438 19.898438 Z M 9.148438 19.898438 "/>
<path style=" stroke:none;fill-rule:nonzero;fill:rgb(75.686275%,5.490196%,10.196078%);fill-opacity:1;" d="M 36.300781 10.699219 L 28.351562 6.5 C 27.851562 6.25 27.300781 6.25 26.800781 6.449219 L 3.800781 17.300781 C 2.949219 17.699219 2.550781 18.75 2.949219 19.648438 L 9.101562 32.699219 C 9.5 33.550781 10.550781 33.949219 11.449219 33.550781 L 34.351562 22.75 C 34.851562 22.5 35.199219 22.050781 35.300781 21.550781 L 37.199219 12.648438 C 37.351562 11.851562 37 11.050781 36.300781 10.699219 Z M 9.898438 26.148438 C 9.25 25.898438 8.75 25.351562 8.351562 24.550781 L 7.300781 22.300781 C 6.898438 21.449219 6.800781 20.699219 7 20.050781 C 7.199219 19.398438 7.699219 18.898438 8.5 18.5 C 9.300781 18.101562 10.050781 18.050781 10.648438 18.300781 C 11.25 18.550781 11.800781 19.101562 12.199219 19.949219 L 13.25 22.199219 C 13.648438 23 13.699219 23.75 13.5 24.449219 C 13.300781 25.101562 12.800781 25.648438 12 26 C 11.25 26.351562 10.550781 26.398438 9.898438 26.148438 Z M 15 28.648438 L 13.148438 16 L 15.199219 15.050781 L 17.050781 27.699219 Z M 23 21.800781 C 23.398438 22.601562 23.449219 23.351562 23.25 24 C 23.050781 24.648438 22.550781 25.199219 21.800781 25.550781 C 21.050781 25.898438 20.300781 25.949219 19.648438 25.699219 C 19 25.449219 18.5 24.898438 18.101562 24.101562 L 17 21.800781 C 16.601562 20.949219 16.5 20.199219 16.699219 19.550781 C 16.898438 18.898438 17.398438 18.398438 18.25 18 C 19.050781 17.601562 19.800781 17.550781 20.398438 17.800781 C 21 18.050781 21.550781 18.601562 21.949219 19.449219 Z M 32.699219 15 C 32.050781 15.300781 31.300781 15.050781 31 14.398438 C 30.699219 13.75 30.949219 13 31.601562 12.699219 C 32.25 12.398438 33 12.648438 33.300781 13.300781 C 33.601562 13.949219 33.351562 14.699219 32.699219 15 Z M 32.699219 15 "/>
</g>
</svg>
