<?xml version="1.0" encoding="UTF-8"?>
<svg xmlns="http://www.w3.org/2000/svg" xmlns:xlink="http://www.w3.org/1999/xlink" width="px" height="px" viewBox="0 0 40 40" version="1.1">
<g id="surface1">
<path style=" stroke:none;fill-rule:nonzero;fill:rgb(100%,100%,100%);fill-opacity:1;" d="M 39.75 20 C 39.75 30.90625 30.90625 39.75 20 39.75 C 9.09375 39.75 0.25 30.90625 0.25 20 C 0.25 9.09375 9.09375 0.25 20 0.25 C 30.90625 0.25 39.75 9.09375 39.75 20 Z M 39.75 20 "/>
<path style=" stroke:none;fill-rule:nonzero;fill:rgb(13.333333%,13.333333%,12.941176%);fill-opacity:1;" d="M 20 0.25 C 9.101562 0.25 0.25 9.101562 0.25 20 C 0.25 30.898438 9.101562 39.75 20 39.75 C 30.898438 39.75 39.75 30.898438 39.75 20 C 39.75 9.101562 30.898438 0.25 20 0.25 Z M 34.949219 20.800781 L 33.398438 21.300781 C 32.800781 21.5 32.101562 21.601562 32 22 C 31.949219 22.25 31.898438 22.398438 31.851562 22.648438 C 31.75 23.199219 31.648438 23.25 32.101562 23.648438 L 33.199219 24.75 C 33.449219 25 34.199219 25.601562 34.148438 25.949219 C 34.148438 26.101562 33.300781 27.550781 33.199219 27.800781 C 32.851562 28.398438 32.851562 28.851562 32.199219 28.699219 C 32 28.648438 31.851562 28.601562 31.648438 28.550781 C 31.300781 28.449219 30.898438 28.351562 30.5 28.25 C 29.75 28.050781 29.398438 27.800781 28.949219 28.199219 C 28.699219 28.449219 28.101562 28.949219 28.050781 29.300781 C 28 29.601562 28.449219 31.300781 28.550781 31.75 C 28.648438 32.148438 28.898438 32.648438 28.398438 32.898438 L 27.398438 33.5 C 25.800781 34.351562 26.101562 34.5 25.199219 33.601562 C 23.351562 31.601562 23.800781 31.648438 22.398438 31.949219 C 22.199219 32 21.75 32.050781 21.601562 32.199219 C 21.398438 32.351562 20.699219 34.5 20.550781 34.851562 C 20.449219 35.199219 20.398438 35.449219 20.050781 35.5 C 19.699219 35.5 19.351562 35.449219 19 35.449219 C 18.699219 35.449219 18.351562 35.449219 17.949219 35.398438 L 17.351562 35.300781 C 17.25 35.25 17.148438 35.199219 17.101562 35.101562 C 16.949219 34.851562 16.949219 34.449219 16.898438 34.199219 C 16.851562 33.800781 16.75 33.449219 16.699219 33.050781 C 16.550781 32.101562 16.699219 31.851562 16 31.601562 C 15.398438 31.398438 14.699219 30.949219 14.25 31.25 L 12.601562 32.5 C 12.199219 32.800781 12 33.101562 11.550781 33.050781 C 11.449219 33.050781 10.5 32.25 10.300781 32.101562 C 9.148438 31.148438 9 31.550781 9.699219 30 C 9.851562 29.648438 10.550781 28.199219 10.5 27.898438 C 10.449219 27.75 10.351562 27.601562 10.25 27.5 C 10.148438 27.351562 10.101562 27.25 10 27.101562 C 9.300781 26.148438 9.449219 26.25 8.300781 26.351562 C 7.898438 26.351562 7.5 26.398438 7.148438 26.449219 C 6 26.550781 5.898438 26.699219 5.648438 25.851562 C 4.75 23.050781 4.5 23.800781 5.949219 22.75 L 6.699219 22.25 C 7.75 21.449219 7.800781 21.898438 7.75 20.601562 C 7.699219 19.449219 7.851562 19.601562 6.898438 19.101562 C 6.5 18.898438 6.148438 18.699219 5.75 18.449219 C 5.550781 18.351562 5.351562 18.25 5.199219 18.148438 C 5.050781 18.101562 4.75 17.898438 4.648438 17.851562 C 4.75 17 4.949219 16.300781 5.199219 15.550781 C 5.550781 14.300781 5.351562 14.699219 7.800781 14.550781 C 8.25 14.5 9 14.648438 9.25 14.25 C 10.199219 12.699219 10.148438 13.25 9.199219 11.449219 C 8.199219 9.648438 8.050781 10.148438 9.550781 8.75 C 9.800781 8.550781 10.5 7.75 10.800781 7.699219 C 11.101562 7.648438 12.699219 8.75 13.050781 8.949219 C 14 9.5 13.851562 9.5 14.851562 9 C 15.351562 8.75 15.300781 8.75 15.351562 8.101562 C 15.398438 7.648438 15.398438 7.25 15.449219 6.75 C 15.550781 5.851562 15.398438 5.25 15.851562 5.148438 C 16.351562 5 18.601562 4.648438 18.851562 4.648438 C 19 4.699219 19.101562 4.949219 19.148438 5.050781 L 19.851562 6.449219 C 19.949219 6.601562 20 6.75 20.101562 6.898438 C 20.199219 7.148438 20.398438 7.648438 20.648438 7.800781 C 20.800781 7.851562 21.851562 7.949219 21.949219 7.949219 C 22.148438 7.898438 22.75 6.949219 22.898438 6.699219 C 23 6.550781 23.101562 6.398438 23.199219 6.25 C 23.300781 6.101562 23.398438 6 23.5 5.851562 C 24.050781 5.050781 24.050781 5.050781 24.949219 5.449219 C 25.648438 5.75 26.351562 5.949219 27 6.25 C 27.550781 6.5 27.199219 7.050781 27.199219 7.648438 L 27 9.25 C 26.898438 10 27.101562 10 27.601562 10.398438 C 27.949219 10.699219 28.101562 10.699219 28.5 10.550781 C 28.699219 10.449219 31.050781 9.5 31.300781 9.550781 C 31.550781 9.601562 32.25 10.648438 32.449219 10.898438 L 32.949219 11.601562 C 33.601562 12.5 33.550781 12.199219 32.300781 13.75 C 31.101562 15.199219 31.148438 14.851562 31.550781 16 C 31.648438 16.351562 31.75 16.449219 32.25 16.550781 C 32.601562 16.601562 33.050781 16.699219 33.351562 16.800781 C 35.449219 17.300781 35.199219 16.800781 35.351562 18.449219 C 35.398438 18.800781 35.398438 19.101562 35.398438 19.449219 C 35.398438 19.800781 35.449219 20.101562 35.449219 20.300781 L 35.398438 20.5 C 35.351562 20.601562 35.25 20.699219 34.949219 20.800781 Z M 34.949219 20.800781 "/>
<path style=" stroke:none;fill-rule:nonzero;fill:rgb(13.333333%,13.333333%,12.941176%);fill-opacity:1;" d="M 21.300781 10.101562 C 15.800781 9.300781 10.699219 13.101562 9.898438 18.601562 C 9.101562 24.101562 12.898438 29.199219 18.398438 30 C 23.898438 30.800781 29 27 29.800781 21.5 C 30.601562 16 26.800781 10.898438 21.300781 10.101562 Z M 12.5 14.351562 C 12.648438 13.851562 12.800781 13.851562 13.148438 14.199219 C 13.648438 14.699219 14.148438 15.199219 14.699219 15.699219 C 15.101562 16.101562 15.5 16.101562 15.851562 15.800781 C 16.148438 15.5 16.101562 15.101562 15.699219 14.699219 C 15.148438 14.148438 14.648438 13.648438 14.101562 13.101562 C 13.800781 12.800781 13.851562 12.648438 14.199219 12.550781 C 15.25 12.148438 16.25 12.300781 17.148438 13 C 18.050781 13.75 18.398438 14.75 18.199219 15.898438 C 18.148438 16.148438 18.199219 16.351562 18.398438 16.5 C 18.898438 16.949219 19.398438 17.449219 19.851562 17.949219 C 19.199219 18.601562 18.550781 19.199219 17.898438 19.851562 C 17.449219 19.398438 16.949219 18.949219 16.5 18.449219 C 16.300781 18.25 16.101562 18.199219 15.800781 18.25 C 14.699219 18.449219 13.699219 18.101562 13 17.25 C 12.300781 16.351562 12.148438 15.398438 12.5 14.351562 Z M 18.699219 22.550781 C 17.25 24.148438 15.851562 25.75 14.398438 27.351562 C 14.148438 27.648438 13.898438 27.648438 13.648438 27.398438 C 13.25 27 12.851562 26.601562 12.449219 26.199219 C 12.199219 25.949219 12.199219 25.699219 12.5 25.449219 C 14.101562 24 15.75 22.550781 17.351562 21.101562 C 17.648438 20.851562 17.898438 20.851562 18.148438 21.148438 C 18.351562 21.351562 18.550781 21.550781 18.75 21.75 C 18.851562 21.851562 18.898438 22 19 22.148438 C 18.851562 22.25 18.800781 22.449219 18.699219 22.550781 Z M 27.5 25.699219 C 27.351562 26.148438 27.199219 26.199219 26.851562 25.851562 C 26.351562 25.351562 25.800781 24.800781 25.300781 24.300781 C 24.949219 23.949219 24.5 23.898438 24.199219 24.199219 C 23.898438 24.5 23.898438 24.898438 24.300781 25.300781 C 24.800781 25.851562 25.351562 26.351562 25.898438 26.898438 C 26.25 27.25 26.199219 27.351562 25.75 27.5 C 23.550781 28.300781 21.351562 26.449219 21.800781 24.101562 C 21.851562 23.800781 21.800781 23.648438 21.601562 23.5 C 21.050781 22.949219 20.5 22.398438 19.949219 21.898438 C 20.601562 21.25 21.199219 20.601562 21.898438 19.949219 C 22.449219 20.5 23 21.050781 23.5 21.601562 C 23.699219 21.800781 23.898438 21.851562 24.148438 21.800781 C 25.25 21.601562 26.25 21.949219 26.949219 22.800781 C 27.699219 23.601562 27.851562 24.648438 27.5 25.699219 Z M 26.851562 17.398438 C 27.101562 17.148438 27.398438 17.101562 27.648438 17.398438 C 27.898438 17.648438 27.75 17.898438 27.550781 18.148438 C 27.25 18.449219 27 18.699219 26.699219 19 C 26.449219 19.25 26.199219 19.550781 25.800781 19.25 C 25.449219 18.949219 25.601562 18.648438 25.851562 18.351562 C 25.550781 18.101562 25.300781 17.851562 24.949219 17.648438 C 24.800781 17.550781 24.550781 17.550781 24.351562 17.5 C 24.101562 17.449219 23.898438 17.351562 23.601562 17.199219 C 22.199219 18.648438 20.699219 20.148438 19.199219 21.648438 C 18.800781 21.25 18.449219 20.898438 18.101562 20.550781 C 19.601562 19.050781 21.050781 17.601562 22.550781 16.101562 C 22.5 16.101562 22.449219 16.050781 22.398438 16.050781 C 22.449219 15.800781 22.398438 15.5 22.5 15.25 C 22.648438 14.75 22.5 14.351562 22.199219 13.949219 C 21.648438 13.300781 20.898438 13 20.101562 12.851562 C 19.898438 12.800781 19.75 12.75 19.449219 12.699219 C 20.101562 12.351562 20.699219 12.351562 21.300781 12.449219 C 22.550781 12.699219 23.601562 13.398438 24.5 14.199219 C 25 14.699219 25.5 15.25 25.898438 15.800781 C 26.101562 16.050781 26.101562 16.449219 26.25 16.75 C 26.351562 17 26.449219 17.199219 26.601562 17.449219 C 26.75 17.449219 26.800781 17.398438 26.851562 17.398438 Z M 26.851562 17.398438 "/>
</g>
</svg>
