<?xml version="1.0" encoding="UTF-8"?>
<svg xmlns="http://www.w3.org/2000/svg" xmlns:xlink="http://www.w3.org/1999/xlink" width="px" height="px" viewBox="0 0 40 40" version="1.1">
<defs>
<clipPath id="clip1">
  <path d="M 7.25 7.25 L 32.699219 7.25 L 32.699219 32.699219 L 7.25 32.699219 Z M 7.25 7.25 "/>
</clipPath>
</defs>
<g id="surface1">
<path style=" stroke:none;fill-rule:nonzero;fill:rgb(80.784314%,38.823529%,56.862745%);fill-opacity:1;" d="M 39.75 20 C 39.75 30.90625 30.90625 39.75 20 39.75 C 9.09375 39.75 0.25 30.90625 0.25 20 C 0.25 9.09375 9.09375 0.25 20 0.25 C 30.90625 0.25 39.75 9.09375 39.75 20 Z M 39.75 20 "/>
<g clip-path="url(#clip1)" clip-rule="nonzero">
<path style=" stroke:none;fill-rule:nonzero;fill:rgb(100%,100%,100%);fill-opacity:1;" d="M 27.699219 19.800781 C 27.699219 20.101562 27.949219 20.398438 28.300781 20.398438 C 28.648438 20.398438 28.898438 20.101562 28.898438 19.800781 C 28.898438 19.5 28.601562 19.199219 28.300781 19.199219 C 28 19.199219 27.699219 19.5 27.699219 19.800781 M 25.199219 24.101562 C 25.199219 24.449219 25.449219 24.699219 25.800781 24.699219 C 26.101562 24.699219 26.398438 24.449219 26.398438 24.101562 C 26.398438 23.75 26.148438 23.5 25.800781 23.5 C 25.449219 23.5 25.199219 23.800781 25.199219 24.101562 M 20.601562 12 C 20.601562 11.648438 20.351562 11.398438 20 11.398438 C 19.648438 11.398438 19.398438 11.648438 19.398438 12 C 19.398438 12.351562 19.648438 12.601562 20 12.601562 C 20.351562 12.601562 20.601562 12.300781 20.601562 12 M 14.800781 24.101562 C 14.800781 23.75 14.550781 23.5 14.199219 23.5 C 13.898438 23.5 13.601562 23.75 13.601562 24.101562 C 13.601562 24.449219 13.851562 24.699219 14.199219 24.699219 C 14.550781 24.699219 14.800781 24.449219 14.800781 24.101562 M 14.199219 16.101562 C 14.550781 16.101562 14.800781 15.851562 14.800781 15.5 C 14.800781 15.148438 14.550781 14.898438 14.199219 14.898438 C 13.851562 14.898438 13.601562 15.148438 13.601562 15.5 C 13.601562 15.851562 13.851562 16.101562 14.199219 16.101562 M 25.199219 15.5 C 25.199219 15.851562 25.449219 16.101562 25.75 16.101562 C 26.148438 16.101562 26.398438 15.851562 26.398438 15.449219 C 26.398438 15.101562 26.148438 14.898438 25.800781 14.898438 C 25.449219 14.898438 25.199219 15.148438 25.199219 15.5 M 8.75 20.550781 L 8.75 20.800781 C 8.75 22.5 8.75 24.199219 8.75 25.851562 C 8.75 26.148438 8.75 26.449219 8.800781 26.75 C 9 27.898438 9.5 28.898438 10.351562 29.75 C 10.851562 30.199219 11.398438 30.550781 12 30.851562 C 12.5 31.050781 13.050781 31.199219 13.601562 31.199219 L 13.601562 31 C 13.601562 29.800781 13.601562 28.550781 13.601562 27.351562 C 13.601562 26.800781 13.601562 26.25 13.601562 25.648438 C 13.601562 25.601562 13.550781 25.5 13.550781 25.5 C 13.300781 25.398438 13.101562 25.199219 12.898438 24.949219 C 12.351562 24.199219 12.601562 23.199219 13.351562 22.75 C 14.148438 22.25 15.101562 22.601562 15.5 23.300781 C 15.949219 24.050781 15.648438 25.101562 14.851562 25.449219 C 14.75 25.5 14.699219 25.550781 14.699219 25.648438 C 14.699219 26.148438 14.699219 26.699219 14.699219 27.199219 C 14.699219 28.449219 14.699219 29.699219 14.699219 30.949219 L 14.699219 31.148438 L 16.699219 31.148438 L 16.699219 31 C 16.699219 28.75 16.699219 26.5 16.699219 24.25 C 16.699219 23.648438 16.648438 23.101562 16.550781 22.550781 C 16.398438 21.851562 16.050781 21.300781 15.398438 20.949219 C 14.898438 20.699219 14.398438 20.550781 13.851562 20.550781 C 12.25 20.550781 10.699219 20.550781 9.101562 20.550781 C 9.050781 20.550781 8.898438 20.550781 8.75 20.550781 M 26.351562 31.199219 C 26.398438 31.199219 26.398438 31.199219 26.449219 31.199219 C 27.898438 31.050781 29.101562 30.449219 30 29.351562 C 30.851562 28.351562 31.25 27.199219 31.25 25.898438 C 31.25 23.898438 31.25 21.851562 31.25 19.851562 C 31.25 17.949219 31.25 16.050781 31.25 14.101562 C 31.25 13.898438 31.25 13.648438 31.199219 13.449219 C 31.101562 12.449219 30.75 11.601562 30.148438 10.800781 C 29.550781 10.050781 28.851562 9.5 27.949219 9.148438 C 27.449219 8.949219 26.898438 8.800781 26.351562 8.800781 C 26.351562 8.851562 26.351562 8.851562 26.351562 8.851562 C 26.351562 10.550781 26.351562 12.25 26.351562 13.949219 C 26.351562 14.050781 26.398438 14.050781 26.449219 14.101562 C 26.800781 14.25 27 14.5 27.199219 14.800781 C 27.5 15.351562 27.449219 15.898438 27.050781 16.398438 C 26.648438 16.898438 26.148438 17.101562 25.5 17 C 24.898438 16.898438 24.5 16.5 24.300781 15.898438 C 24.101562 15.199219 24.398438 14.449219 25.101562 14.101562 C 25.199219 14.050781 25.25 14 25.25 13.851562 C 25.25 13.550781 25.25 13.25 25.25 12.949219 C 25.25 11.601562 25.25 10.25 25.25 8.898438 L 25.25 8.699219 L 25 8.699219 C 23.25 8.699219 21.5 8.699219 19.75 8.699219 C 17.851562 8.699219 15.949219 8.699219 14.050781 8.699219 C 12.5 8.699219 11.25 9.25 10.199219 10.398438 C 9.25 11.398438 8.800781 12.601562 8.800781 14 C 8.800781 15.75 8.800781 17.449219 8.800781 19.199219 L 8.800781 19.351562 L 10.5 19.351562 C 10.5 19.25 10.5 19.199219 10.5 19.101562 C 10.5 17.699219 10.5 16.300781 10.5 14.851562 C 10.5 14.449219 10.550781 14.050781 10.601562 13.648438 C 10.800781 12.699219 11.300781 12 12.199219 11.648438 C 12.75 11.449219 13.300781 11.351562 13.851562 11.351562 C 15.351562 11.351562 16.851562 11.351562 18.351562 11.351562 C 18.449219 11.351562 18.550781 11.351562 18.601562 11.199219 C 18.800781 10.851562 19.050781 10.601562 19.449219 10.449219 C 20.148438 10.199219 20.949219 10.5 21.351562 11.148438 C 21.699219 11.800781 21.550781 12.648438 20.949219 13.101562 C 20.148438 13.699219 19 13.449219 18.601562 12.550781 C 18.550781 12.449219 18.5 12.449219 18.398438 12.449219 C 16.949219 12.449219 15.449219 12.449219 14 12.449219 C 13.648438 12.449219 13.300781 12.5 12.949219 12.601562 C 12.300781 12.75 11.898438 13.148438 11.75 13.800781 C 11.648438 14.148438 11.648438 14.550781 11.648438 14.949219 C 11.648438 16.351562 11.648438 17.800781 11.648438 19.199219 L 11.648438 19.351562 C 11.75 19.351562 11.800781 19.351562 11.898438 19.351562 C 12.800781 19.351562 13.648438 19.300781 14.550781 19.449219 C 15.148438 19.550781 15.75 19.699219 16.25 20 C 16.949219 20.398438 17.398438 21.050781 17.601562 21.851562 C 17.800781 22.550781 17.898438 23.25 17.898438 23.949219 C 17.898438 26.300781 17.898438 28.601562 17.898438 30.949219 L 17.898438 31.148438 L 19.449219 31.148438 L 19.449219 30.699219 C 19.449219 27.398438 19.449219 24.101562 19.449219 20.75 C 19.449219 20.25 19.449219 19.800781 19.449219 19.300781 C 19.449219 18.699219 19.449219 18.148438 19.300781 17.601562 C 19.199219 17.199219 19.050781 16.851562 18.75 16.601562 C 18.398438 16.300781 18 16.101562 17.550781 16.050781 C 17 16 16.398438 16 15.851562 16 C 15.75 16 15.699219 16.050781 15.648438 16.148438 C 15.449219 16.5 15.199219 16.75 14.800781 16.898438 C 13.648438 17.300781 12.550781 16.300781 12.75 15.148438 C 12.898438 14.449219 13.601562 13.898438 14.300781 13.898438 C 14.949219 13.949219 15.398438 14.25 15.648438 14.800781 C 15.699219 14.898438 15.75 14.898438 15.851562 14.898438 C 16.050781 14.898438 16.25 14.898438 16.449219 14.898438 C 17 14.898438 17.550781 14.898438 18.101562 15.050781 C 19 15.300781 19.699219 15.75 20.101562 16.601562 C 20.398438 17.148438 20.5 17.699219 20.550781 18.300781 C 20.601562 19.050781 20.601562 19.800781 20.601562 20.550781 C 20.601562 24 20.601562 27.449219 20.601562 30.898438 L 20.601562 31.148438 L 22.449219 31.148438 C 22.449219 31.101562 22.449219 31.050781 22.449219 31 C 22.449219 30.351562 22.449219 29.699219 22.449219 29.050781 C 22.449219 27.101562 22.449219 25.101562 22.449219 23.148438 C 22.449219 22.398438 22.550781 21.699219 22.898438 21 C 23.398438 19.949219 24.25 19.300781 25.449219 19.199219 C 25.851562 19.148438 26.300781 19.199219 26.75 19.199219 C 26.851562 19.199219 26.949219 19.148438 27 19.050781 C 27.199219 18.648438 27.550781 18.351562 28 18.25 C 28.648438 18.101562 29.300781 18.300781 29.699219 18.898438 C 30.050781 19.398438 30.101562 20.050781 29.699219 20.601562 C 29.050781 21.601562 27.601562 21.5 27 20.449219 C 26.949219 20.351562 26.898438 20.300781 26.800781 20.300781 C 26.5 20.300781 26.199219 20.300781 25.851562 20.300781 C 24.898438 20.300781 24.199219 20.800781 23.851562 21.648438 C 23.648438 22.148438 23.601562 22.648438 23.601562 23.199219 C 23.601562 25.75 23.601562 28.351562 23.601562 30.898438 L 23.601562 31.101562 L 25.25 31.101562 C 25.25 31.050781 25.25 31.050781 25.25 31.050781 C 25.25 29.25 25.25 27.449219 25.25 25.648438 C 25.25 25.5 25.199219 25.449219 25.101562 25.398438 C 24.550781 25.101562 24.25 24.601562 24.25 23.949219 C 24.25 23.300781 24.699219 22.75 25.351562 22.550781 C 25.949219 22.351562 26.648438 22.550781 27.050781 23.050781 C 27.601562 23.75 27.449219 24.699219 26.800781 25.25 C 26.648438 25.351562 26.449219 25.351562 26.398438 25.550781 C 26.351562 25.699219 26.398438 25.898438 26.398438 26.050781 C 26.398438 27.699219 26.398438 29.300781 26.398438 30.949219 L 26.398438 31.199219 Z M 20 7.25 C 22 7.25 23.949219 7.25 25.949219 7.25 C 27 7.25 27.949219 7.449219 28.898438 7.898438 C 29.648438 8.25 30.300781 8.75 30.898438 9.351562 C 31.699219 10.148438 32.199219 11.101562 32.550781 12.199219 C 32.699219 12.800781 32.800781 13.398438 32.800781 14 C 32.800781 15.550781 32.800781 17.101562 32.800781 18.699219 C 32.800781 21.199219 32.800781 23.75 32.800781 26.25 C 32.800781 27.199219 32.550781 28.050781 32.148438 28.898438 C 31.800781 29.648438 31.300781 30.351562 30.648438 30.949219 C 29.5 32 28.199219 32.601562 26.648438 32.75 C 26.449219 32.75 26.25 32.75 26 32.75 C 24.398438 32.75 22.851562 32.75 21.25 32.75 C 18.898438 32.75 16.550781 32.75 14.148438 32.75 C 13 32.75 11.949219 32.5 11 32 C 9.800781 31.398438 8.851562 30.5 8.148438 29.300781 C 7.550781 28.300781 7.25 27.148438 7.25 26 C 7.25 24.550781 7.25 23.101562 7.25 21.648438 C 7.25 19.101562 7.25 16.550781 7.25 14 C 7.25 12.800781 7.550781 11.699219 8.148438 10.648438 C 8.851562 9.449219 9.851562 8.5 11.148438 7.898438 C 12.050781 7.449219 13 7.25 14 7.25 C 15.5 7.25 16.949219 7.25 18.449219 7.25 C 18.949219 7.25 19.5 7.25 20 7.25 Z M 20 7.25 "/>
</g>
</g>
</svg>
