<?xml version="1.0" encoding="UTF-8"?>
<svg xmlns="http://www.w3.org/2000/svg" xmlns:xlink="http://www.w3.org/1999/xlink" width="px" height="px" viewBox="0 0 40 40" version="1.1">
<g id="surface1">
<path style=" stroke:none;fill-rule:nonzero;fill:rgb(100%,100%,100%);fill-opacity:1;" d="M 39.75 20 C 39.75 30.90625 30.90625 39.75 20 39.75 C 9.09375 39.75 0.25 30.90625 0.25 20 C 0.25 9.09375 9.09375 0.25 20 0.25 C 30.90625 0.25 39.75 9.09375 39.75 20 Z M 39.75 20 "/>
<path style=" stroke:none;fill-rule:nonzero;fill:rgb(48.235294%,47.843137%,48.235294%);fill-opacity:1;" d="M 8.5 26.050781 C 8.699219 25.898438 8.851562 25.75 9.050781 25.648438 C 9.300781 25.5 10 25 10.101562 24.800781 L 9.5 24.800781 C 9.351562 24.851562 9.25 25 8.75 25.351562 C 8.550781 25.5 8.398438 25.648438 8.199219 25.800781 C 7.898438 26.050781 7.851562 25.949219 7.898438 26.449219 C 8.148438 26.351562 8.300781 26.199219 8.5 26.050781 Z M 8.5 26.050781 "/>
<path style=" stroke:none;fill-rule:nonzero;fill:rgb(48.235294%,47.843137%,48.235294%);fill-opacity:1;" d="M 17.699219 20.300781 C 17.898438 20.050781 18.601562 19.199219 18.648438 18.949219 L 16.550781 18.949219 L 16.550781 21.398438 C 16.898438 21.199219 17.398438 20.648438 17.699219 20.300781 Z M 17.699219 20.300781 "/>
<path style=" stroke:none;fill-rule:nonzero;fill:rgb(48.235294%,47.843137%,48.235294%);fill-opacity:1;" d="M 19.75 18.949219 C 18.550781 18.949219 18.949219 18.75 17.949219 20.050781 C 17.800781 20.199219 17.601562 20.449219 17.550781 20.648438 C 17.949219 20.300781 19.601562 19.199219 19.75 18.949219 Z M 19.75 18.949219 "/>
<path style=" stroke:none;fill-rule:nonzero;fill:rgb(48.235294%,47.843137%,48.235294%);fill-opacity:1;" d="M 20.199219 12.199219 C 19.949219 12.25 19.800781 12.449219 19.398438 12.851562 C 18.300781 14.101562 17.351562 14.898438 16 15.851562 C 15.800781 16 15.351562 16.25 15.199219 16.398438 L 16.5 16.398438 L 16.5 17.101562 C 17.148438 16.898438 18.851562 15.449219 19.398438 14.949219 C 19.898438 14.449219 21.5 12.648438 21.699219 12.199219 C 21.648438 12.199219 21.601562 12.199219 21.550781 12.199219 Z M 20.199219 12.199219 "/>
<path style=" stroke:none;fill-rule:nonzero;fill:rgb(48.235294%,47.843137%,48.235294%);fill-opacity:1;" d="M 18.300781 20.75 C 18.601562 20.449219 19 20.101562 19.199219 19.800781 C 19 19.898438 18.699219 20.148438 18.5 20.300781 L 16.699219 21.648438 C 16.550781 21.800781 16.5 21.800781 16.5 22.101562 C 16.800781 22.050781 17.75 21.25 17.949219 21.050781 C 18.148438 20.949219 18.199219 20.898438 18.300781 20.75 Z M 18.300781 20.75 "/>
<path style=" stroke:none;fill-rule:nonzero;fill:rgb(48.235294%,47.843137%,48.235294%);fill-opacity:1;" d="M 14.050781 20.75 C 14.300781 20.949219 14.601562 21.25 14.898438 21.351562 L 14.898438 18.949219 L 11.75 18.949219 C 11.851562 19.050781 13.800781 20.550781 14.050781 20.75 Z M 14.050781 20.75 "/>
<path style=" stroke:none;fill-rule:nonzero;fill:rgb(48.235294%,47.843137%,48.235294%);fill-opacity:1;" d="M 13.898438 17.898438 C 14.300781 17.898438 14.648438 17.851562 14.898438 17.800781 L 14.898438 16.601562 C 14.699219 16.648438 14.398438 16.800781 14.199219 16.898438 C 14 17 13.75 17.101562 13.5 17.199219 C 13.25 17.300781 12.050781 17.648438 11.949219 17.699219 L 11.949219 17.898438 Z M 13.898438 17.898438 "/>
<path style=" stroke:none;fill-rule:nonzero;fill:rgb(48.235294%,47.843137%,48.235294%);fill-opacity:1;" d="M 26.800781 15.351562 L 26.800781 12.199219 L 22.699219 12.199219 C 22.800781 12.351562 23.550781 12.851562 23.699219 13 Z M 26.800781 15.351562 "/>
<path style=" stroke:none;fill-rule:nonzero;fill:rgb(48.235294%,47.843137%,48.235294%);fill-opacity:1;" d="M 20.949219 13.300781 C 19.5 15.101562 18.601562 15.949219 16.5 17.199219 C 16.5 17.398438 16.449219 17.699219 16.550781 17.898438 L 19.25 17.898438 L 19.25 17.25 L 19.800781 17.25 L 19.800781 17.800781 C 20 17.851562 20.25 17.851562 20.449219 17.800781 L 20.449219 17.199219 L 21 17.199219 L 21 17.800781 C 22.949219 17.800781 24.851562 17.300781 26.449219 16.601562 C 26.699219 16.5 26.800781 16.449219 26.800781 16.148438 C 26.800781 15.800781 26.699219 15.800781 26.5 15.601562 L 22.25 12.351562 C 21.75 12.050781 21.949219 12.101562 20.949219 13.300781 Z M 20.949219 13.300781 "/>
<path style=" stroke:none;fill-rule:nonzero;fill:rgb(48.235294%,47.843137%,48.235294%);fill-opacity:1;" d="M 8.75 21.75 L 7.351562 22.949219 C 7.449219 22.949219 7.550781 22.949219 7.601562 22.949219 C 7.699219 22.949219 7.800781 23 7.851562 23 L 7.851562 24 L 9.851562 24 L 9.851562 23.550781 L 10.25 23.550781 L 10.25 24 L 10.75 23.949219 L 10.800781 23.5 L 11.148438 23.5 L 11.199219 23.898438 C 12.199219 23.800781 13.25 23.5 14.148438 23.101562 C 14.300781 23.050781 14.449219 22.949219 14.550781 22.898438 C 14.898438 22.699219 15 22.800781 14.949219 21.949219 C 14.949219 21.601562 14.449219 21.398438 14 21 C 13.5 20.648438 13.050781 20.25 12.550781 19.898438 C 12.300781 19.699219 12.101562 19.550781 11.851562 19.351562 C 10.398438 18.351562 11.351562 19.148438 8.75 21.75 Z M 8.75 21.75 "/>
<path style=" stroke:none;fill-rule:nonzero;fill:rgb(48.235294%,47.843137%,48.235294%);fill-opacity:1;" d="M 21.601562 17.898438 C 22.351562 17.949219 23.601562 17.898438 24.300781 17.800781 C 24.851562 17.75 26.449219 17.5 26.75 17.25 C 26.800781 17.101562 26.800781 16.800781 26.800781 16.550781 C 25.949219 16.851562 25.300781 17.199219 24.351562 17.398438 C 23.949219 17.550781 22.148438 17.898438 21.601562 17.898438 Z M 21.601562 17.898438 "/>
<path style=" stroke:none;fill-rule:nonzero;fill:rgb(48.235294%,47.843137%,48.235294%);fill-opacity:1;" d="M 30 14.648438 L 32.101562 13.050781 C 32.300781 12.898438 33.050781 12.398438 33.148438 12.199219 L 32.148438 12.199219 C 31.851562 12.25 31.851562 12.398438 31.648438 12.601562 C 31.351562 12.949219 31.101562 13.25 30.800781 13.601562 L 29.351562 14.949219 C 29.148438 15.101562 28.949219 15.199219 28.851562 15.398438 C 29.101562 15.351562 29.75 14.800781 30 14.648438 Z M 30 14.648438 "/>
<path style=" stroke:none;fill-rule:nonzero;fill:rgb(48.235294%,47.843137%,48.235294%);fill-opacity:1;" d="M 9.351562 24.800781 L 8 24.800781 C 7.898438 24.851562 7.949219 24.949219 7.949219 25.148438 C 7.949219 25.398438 7.949219 25.648438 7.949219 25.898438 C 8.199219 25.800781 8.449219 25.5 8.699219 25.351562 C 8.851562 25.25 9.199219 25 9.351562 24.800781 Z M 9.351562 24.800781 "/>
<path style=" stroke:none;fill-rule:nonzero;fill:rgb(48.235294%,47.843137%,48.235294%);fill-opacity:1;" d="M 30.148438 14.199219 L 30.898438 13.5 C 31.050781 13.351562 31.101562 13.25 31.25 13.101562 C 31.449219 12.898438 31.800781 12.449219 31.898438 12.25 L 28.949219 12.25 L 28.949219 15.199219 C 29.101562 15.101562 29.949219 14.351562 30.148438 14.199219 Z M 30.148438 14.199219 "/>
<path style=" stroke:none;fill-rule:nonzero;fill:rgb(48.235294%,47.843137%,48.235294%);fill-opacity:1;" d="M 26.800781 17.398438 C 26.050781 17.550781 25.5 17.75 24.699219 17.851562 C 23.648438 18 22.800781 18 21.75 18 C 21.75 18.601562 21.800781 18.851562 21.699219 18.898438 C 21.699219 18.898438 21.699219 18.898438 21.648438 18.898438 L 20.601562 18.898438 C 20.601562 18.898438 20.550781 18.898438 20.550781 18.898438 L 20.300781 18.898438 L 20.300781 19 C 20.25 19 20.148438 19.050781 20.101562 19.101562 C 19.148438 19.800781 18.648438 20.800781 16.949219 22 C 16.5 22.300781 16.5 22.148438 16.5 22.800781 C 16.5 23.199219 16.5 23.601562 16.5 24 L 16.5 39.449219 C 17.648438 39.648438 18.800781 39.75 20 39.75 C 22.398438 39.75 24.699219 39.351562 26.800781 38.550781 Z M 26.800781 17.398438 "/>
<path style=" stroke:none;fill-rule:nonzero;fill:rgb(48.235294%,47.843137%,48.235294%);fill-opacity:1;" d="M 28.898438 16.398438 C 29.699219 16.050781 30.601562 15.351562 31.199219 14.851562 C 31.550781 14.550781 32.800781 13.300781 33.050781 12.851562 C 32.699219 13.050781 29.800781 15.300781 29.199219 15.75 C 28.898438 15.949219 28.898438 15.949219 28.898438 16.398438 Z M 28.898438 16.398438 "/>
<path style=" stroke:none;fill-rule:nonzero;fill:rgb(48.235294%,47.843137%,48.235294%);fill-opacity:1;" d="M 20 0.25 C 9.101562 0.25 0.25 9.101562 0.25 20 C 0.25 25.800781 2.75 31 6.699219 34.601562 L 6.699219 26.800781 C 6.398438 26.648438 6.050781 26.351562 5.800781 26.101562 C 5.550781 25.898438 4.199219 24.800781 4 24.800781 C 3.949219 24.800781 3.949219 24.800781 3.898438 24.800781 L 2.75 24.800781 L 2.75 24.449219 C 2.75 24.351562 2.75 24.199219 2.75 24.050781 L 3.300781 24.050781 L 3.300781 23.550781 L 3.699219 23.550781 L 3.699219 24.050781 L 4.148438 24.050781 L 4.199219 23.601562 L 4.648438 23.601562 L 4.648438 23.851562 C 4.898438 23.699219 5.199219 23.550781 5.449219 23.398438 C 6.199219 22.949219 6.898438 22.398438 7.5 21.75 C 7.949219 21.25 9.300781 19.648438 9.601562 19 L 9.550781 18.949219 C 9.550781 18.949219 9.5 18.949219 9.5 18.949219 L 9.449219 18.949219 L 9.449219 17.949219 L 10.199219 17.949219 L 10.199219 17.25 C 10.851562 17.199219 10.699219 17.300781 10.75 17.75 C 10.851562 17.75 11.199219 17.75 11.300781 17.699219 C 11.5 17.648438 11.449219 17.449219 11.449219 17.25 C 12.050781 17.25 12 17.199219 12 17.601562 C 13.601562 17.351562 15.5 16.25 16.550781 15.5 C 17.75 14.648438 18.550781 13.800781 19.550781 12.699219 C 19.699219 12.550781 19.800781 12.449219 19.949219 12.25 C 19.898438 12.199219 19.898438 12.199219 19.851562 12.199219 L 19.699219 12.199219 L 19.699219 11.101562 C 19.699219 11.050781 19.699219 11.050781 19.699219 11 L 19.699219 10.851562 L 20.601562 10.851562 C 20.648438 10.851562 20.699219 10.851562 20.75 10.800781 L 20.75 9.949219 L 21.398438 9.949219 L 21.398438 10.050781 C 21.449219 10.148438 21.398438 10.351562 21.398438 10.75 L 21.398438 10.800781 L 22.300781 10.800781 C 22.300781 10.75 22.300781 10.699219 22.300781 10.648438 L 22.300781 10.398438 C 22.300781 10.25 22.25 10.101562 22.300781 10.050781 L 22.300781 9.949219 L 22.5 9.949219 C 22.550781 9.949219 22.550781 9.949219 22.601562 9.949219 C 22.699219 9.949219 22.75 9.949219 22.800781 9.949219 L 22.949219 9.949219 L 22.949219 10 C 23 10.101562 22.949219 10.300781 22.949219 10.851562 L 26.800781 10.851562 L 26.800781 9.148438 C 26.800781 8.898438 26.800781 8.898438 27.050781 8.898438 L 28.898438 8.898438 L 28.898438 10.550781 C 28.898438 10.800781 28.898438 10.851562 29.101562 10.851562 L 32.449219 10.851562 L 32.449219 9.949219 L 33.050781 10 C 33.148438 10.148438 33.101562 10.550781 33.148438 10.851562 L 34.050781 10.851562 L 34.050781 10 L 34.75 10 L 34.75 10.25 C 34.75 10.449219 34.75 10.699219 34.75 10.851562 L 35.699219 10.851562 L 35.699219 12.199219 L 34.398438 12.199219 C 33.851562 12.199219 33.699219 12.25 33.351562 12.601562 C 33.148438 12.851562 33 13.050781 32.800781 13.300781 C 32.050781 14.25 31.199219 15 30.199219 15.699219 C 29.949219 15.851562 29.699219 16.050781 29.449219 16.199219 C 28.851562 16.550781 28.898438 16.398438 28.898438 16.851562 C 28.898438 23.75 28.851562 30.699219 28.898438 37.601562 C 35.351562 34.351562 39.75 27.699219 39.75 20 C 39.75 9.101562 30.898438 0.25 20 0.25 Z M 20 0.25 "/>
<path style=" stroke:none;fill-rule:nonzero;fill:rgb(48.235294%,47.843137%,48.235294%);fill-opacity:1;" d="M 9.050781 20 C 8.199219 21.300781 6.851562 22.699219 5.449219 23.5 C 5.148438 23.699219 4.800781 23.800781 4.648438 23.949219 L 4.648438 24 C 5.050781 24.050781 5.5 23.800781 5.851562 23.648438 C 6.550781 23.351562 6.699219 23.398438 6.75 22.949219 C 7.300781 22.898438 7.148438 22.949219 7.449219 22.699219 C 7.648438 22.550781 7.851562 22.398438 8 22.25 L 8.5 21.800781 C 9 21.351562 10.648438 19.449219 10.699219 18.949219 C 10.449219 18.949219 10.25 18.949219 10 18.949219 C 9.601562 18.949219 9.601562 19.148438 9.050781 20 Z M 9.050781 20 "/>
<path style=" stroke:none;fill-rule:nonzero;fill:rgb(48.235294%,47.843137%,48.235294%);fill-opacity:1;" d="M 14.898438 31.601562 C 14.898438 31.050781 14.949219 23.5 14.898438 23.148438 C 13.851562 23.5 12.898438 23.800781 11.699219 24 L 11.75 24 L 11.75 24.800781 L 10.75 24.800781 C 10.550781 24.851562 10.5 24.949219 10.199219 25.148438 L 8.601562 26.398438 C 7.949219 26.851562 8 26.800781 8 27.199219 C 8 29.949219 8 32.800781 8 35.601562 C 10.050781 37.199219 12.398438 38.398438 15 39.050781 C 14.851562 36.601562 14.898438 34.101562 14.898438 31.601562 Z M 14.898438 31.601562 "/>
<path style=" stroke:none;fill-rule:nonzero;fill:rgb(48.235294%,47.843137%,48.235294%);fill-opacity:1;" d="M 6.699219 23.648438 L 6.699219 23.351562 L 5.351562 24 L 6.699219 24 L 6.75 23.800781 Z M 6.699219 23.648438 "/>
<path style=" stroke:none;fill-rule:nonzero;fill:rgb(48.235294%,47.843137%,48.235294%);fill-opacity:1;" d="M 6.699219 26.5 L 6.699219 24.800781 L 4.5 24.800781 C 4.75 25.050781 6.550781 26.449219 6.699219 26.5 Z M 6.699219 26.5 "/>
</g>
</svg>
