<?xml version="1.0" encoding="UTF-8"?>
<svg xmlns="http://www.w3.org/2000/svg" xmlns:xlink="http://www.w3.org/1999/xlink" width="px" height="px" viewBox="0 0 40 40" version="1.1">
<g id="surface1">
<path style=" stroke:none;fill-rule:nonzero;fill:rgb(100%,100%,100%);fill-opacity:1;" d="M 39.75 20 C 39.75 30.90625 30.90625 39.75 20 39.75 C 9.09375 39.75 0.25 30.90625 0.25 20 C 0.25 9.09375 9.09375 0.25 20 0.25 C 30.90625 0.25 39.75 9.09375 39.75 20 Z M 39.75 20 "/>
<path style=" stroke:none;fill-rule:nonzero;fill:rgb(34.901961%,15.686275%,49.803922%);fill-opacity:1;" d="M 13.199219 11.148438 L 6.199219 11.148438 L 6.199219 26.398438 L 13.199219 26.398438 Z M 12.300781 22.351562 L 7 22.351562 L 7 21.398438 L 12.300781 21.398438 Z M 12.300781 20.5 L 7 20.5 L 7 19.550781 L 12.300781 19.550781 Z M 12.300781 18.699219 L 7 18.699219 L 7 17.75 L 12.300781 17.75 Z M 12.300781 16.851562 L 7 16.851562 L 7 15.898438 L 12.300781 15.898438 Z M 12.300781 15.050781 L 7 15.050781 L 7 14.101562 L 12.300781 14.101562 Z M 12.300781 13.199219 L 7 13.199219 L 7 12.25 L 12.300781 12.25 Z M 12.300781 13.199219 "/>
<path style=" stroke:none;fill-rule:nonzero;fill:rgb(34.901961%,15.686275%,49.803922%);fill-opacity:1;" d="M 26.800781 26.398438 L 33.800781 26.398438 L 33.800781 11.148438 L 26.800781 11.148438 Z M 27.550781 12.300781 L 32.851562 12.300781 L 32.851562 13.25 L 27.550781 13.25 Z M 27.550781 14.101562 L 32.851562 14.101562 L 32.851562 15.050781 L 27.550781 15.050781 Z M 27.550781 15.949219 L 32.851562 15.949219 L 32.851562 16.898438 L 27.550781 16.898438 Z M 27.550781 17.75 L 32.851562 17.75 L 32.851562 18.699219 L 27.550781 18.699219 Z M 27.550781 19.601562 L 32.851562 19.601562 L 32.851562 20.5 L 27.550781 20.5 Z M 27.550781 21.398438 L 32.851562 21.398438 L 32.851562 22.351562 L 27.550781 22.351562 Z M 27.550781 21.398438 "/>
<path style=" stroke:none;fill-rule:nonzero;fill:rgb(34.901961%,15.686275%,49.803922%);fill-opacity:1;" d="M 23.5 9 L 16.5 9 L 16.5 27.75 L 23.5 27.75 Z M 23.050781 27.148438 L 16.949219 27.148438 L 16.949219 9.601562 L 23 9.601562 L 23 27.148438 Z M 23.050781 27.148438 "/>
<path style=" stroke:none;fill-rule:nonzero;fill:rgb(34.901961%,15.686275%,49.803922%);fill-opacity:1;" d="M 20 0.25 C 9.101562 0.25 0.25 9.101562 0.25 20 C 0.25 30.898438 9.101562 39.75 20 39.75 C 30.898438 39.75 39.75 30.898438 39.75 20 C 39.75 9.101562 30.898438 0.25 20 0.25 Z M 30.75 27.25 L 30.75 32.050781 L 9 32.050781 L 9 27.25 L 5.398438 27.25 L 5.398438 10.25 L 14.101562 10.25 L 14.101562 27.199219 L 10 27.199219 L 10 31 L 19.5 31 L 19.5 28.75 L 15.648438 28.75 L 15.648438 7.949219 L 24.351562 7.949219 L 24.351562 28.800781 L 20.5 28.800781 L 20.5 31.050781 L 29.75 31.050781 L 29.75 27.25 L 25.949219 27.25 L 25.949219 10.25 L 34.648438 10.25 L 34.648438 27.199219 L 30.75 27.199219 Z M 30.75 27.25 "/>
</g>
</svg>
