<svg version="1.1" xmlns="http://www.w3.org/2000/svg" xmlns:xlink="http://www.w3.org/1999/xlink" viewBox="0 0 172 172"><g fill="none" fill-rule="nonzero" stroke="none" stroke-width="1" stroke-linecap="butt" stroke-linejoin="miter" stroke-miterlimit="10" stroke-dasharray="" stroke-dashoffset="0" font-family="none" font-weight="none" font-size="none" text-anchor="none" style="mix-blend-mode: normal"><path d="M0,172v-172h172v172z" fill="none"></path><g fill="#000000"><path d="M37.625,21.5c-8.86035,0 -16.125,7.26465 -16.125,16.125v96.75c0,8.86035 7.26465,16.125 16.125,16.125h96.75c8.86035,0 16.125,-7.26465 16.125,-16.125v-96.75c0,-8.86035 -7.26465,-16.125 -16.125,-16.125zM37.625,32.25h96.75c3.02344,0 5.375,2.35156 5.375,5.375v96.75c0,3.02344 -2.35156,5.375 -5.375,5.375h-96.75c-3.02344,0 -5.375,-2.35156 -5.375,-5.375v-96.75c0,-3.02344 2.35156,-5.375 5.375,-5.375zM61.56055,54.00196l-7.55859,7.55859l24.39746,24.43945l-24.39746,24.39746l7.55859,7.64258l24.43945,-24.43946l24.39746,24.43946l7.64258,-7.64258l-24.43946,-24.39746l24.43946,-24.43945l-7.64258,-7.55859l-24.39746,24.39746z"></path></g></g></svg>