<svg xmlns="http://www.w3.org/2000/svg" xmlns:xlink="http://www.w3.org/1999/xlink" width="16px" height="16px" viewBox="0 0 16 16" version="1.1">
<g id="surface1">
<path style=" stroke:none;fill-rule:nonzero;fill: #0b79d0;fill-opacity:1;" d="M 9.320312 0.199219 C 9.320312 0.199219 9.28125 0.199219 9.28125 0.199219 L 3.441406 0.199219 C 2.800781 0.199219 2.238281 0.71875 2.238281 1.359375 L 2.238281 14.398438 C 2.238281 15.160156 2.878906 15.800781 3.640625 15.800781 L 12.359375 15.800781 C 13.121094 15.800781 13.761719 15.160156 13.761719 14.398438 L 13.761719 4.679688 C 13.761719 4.640625 13.761719 4.601562 13.761719 4.558594 L 13.761719 4.480469 C 13.761719 4.398438 13.71875 4.320312 13.679688 4.238281 L 9.800781 0.359375 C 9.71875 0.28125 9.640625 0.28125 9.558594 0.28125 L 9.441406 0.28125 C 9.398438 0.199219 9.359375 0.199219 9.320312 0.199219 Z M 3.441406 0.878906 L 9.039062 0.878906 L 9.039062 3.71875 C 9.039062 4.398438 9.601562 4.960938 10.28125 4.960938 L 13.121094 4.960938 L 13.121094 14.398438 C 13.121094 14.800781 12.800781 15.121094 12.398438 15.121094 L 3.640625 15.121094 C 3.238281 15.121094 2.921875 14.800781 2.921875 14.398438 L 2.921875 1.398438 C 2.921875 1.121094 3.121094 0.878906 3.441406 0.878906 Z M 9.679688 1.199219 L 12.761719 4.28125 L 10.238281 4.28125 C 9.921875 4.28125 9.679688 4.039062 9.679688 3.71875 Z M 5.28125 7.679688 L 5.28125 8.359375 L 10.71875 8.359375 L 10.71875 7.679688 Z M 5.28125 9.039062 L 5.28125 9.71875 L 10.71875 9.71875 L 10.71875 9.039062 Z M 5.28125 10.359375 L 5.28125 11.039062 L 10.71875 11.039062 L 10.71875 10.359375 Z M 5.28125 11.71875 L 5.28125 12.398438 L 8.320312 12.398438 L 8.320312 11.71875 Z M 5.28125 11.71875 "/>
</g>
</svg>