<svg version="1.1" xmlns="http://www.w3.org/2000/svg" xmlns:xlink="http://www.w3.org/1999/xlink" viewBox="0 0 172 172"><g fill="none" fill-rule="nonzero" stroke="none" stroke-width="1" stroke-linecap="butt" stroke-linejoin="miter" stroke-miterlimit="10" stroke-dasharray="" stroke-dashoffset="0" font-family="none" font-weight="none" font-size="none" text-anchor="none" style="mix-blend-mode: normal"><path d="M0,172v-172h172v172z" fill="none"></path><g fill="#000000"><path d="M51.6,17.23359c-9.46,0 -17.2,7.28178 -17.2,16.22578v105.14844c0,8.944 7.74,16.22578 17.2,16.22578h68.8c9.46,0 17.2,-7.28178 17.2,-16.22578v-105.14844c0,-8.944 -7.74,-16.22578 -17.2,-16.22578zM51.6,28.70026h28.66667v35.83333h-34.4v-31.07422c0,-2.63733 2.58,-4.75911 5.73333,-4.75911zM91.73333,28.70026h28.66667c3.15333,0 5.73333,2.12178 5.73333,4.75911v31.07422h-34.4zM45.86667,76.00026h80.26667v62.60755c0,2.63733 -2.58,4.75911 -5.73333,4.75911h-68.8c-3.15333,0 -5.73333,-2.12178 -5.73333,-4.75911z"></path></g></g></svg>