<svg version="1.1" xmlns="http://www.w3.org/2000/svg" xmlns:xlink="http://www.w3.org/1999/xlink" viewBox="0 0 172 172"><g fill="none" fill-rule="nonzero" stroke="none" stroke-width="1" stroke-linecap="butt" stroke-linejoin="miter" stroke-miterlimit="10" stroke-dasharray="" stroke-dashoffset="0" font-family="none" font-weight="none" font-size="none" text-anchor="none" style="mix-blend-mode: normal"><path d="M0,172v-172h172v172z" fill="none"></path><g id="original-icon" fill="#ffffff"><path d="M28.66667,28.66667c-4.773,0 -8.98151,2.34406 -11.57585,5.94889c-1.74867,2.42233 -0.97612,5.85595 1.55371,7.43262l62.93229,39.2207c2.709,1.69133 6.13735,1.69133 8.84636,0l62.66634,-39.55664c2.63017,-1.66267 3.28592,-5.27623 1.34375,-7.69857c-2.61583,-3.25367 -6.60643,-5.34701 -11.09993,-5.34701zM154.19531,57.94922c-0.59931,0.00661 -1.20792,0.17178 -1.77767,0.5319l-61.99446,39.09472c-2.70901,1.68417 -6.13736,1.67734 -8.84636,-0.014l-62.00846,-38.63281c-2.279,-1.419 -5.23503,0.22396 -5.23503,2.91146v67.15951c0,7.91917 6.41417,14.33333 14.33333,14.33333h114.66667c7.91917,0 14.33333,-6.41417 14.33333,-14.33333v-67.62142c0,-2.021 -1.67342,-3.44918 -3.47135,-3.42936z"></path></g></g></svg>