<?xml version="1.0" encoding="UTF-8"?>
<svg xmlns="http://www.w3.org/2000/svg" xmlns:xlink="http://www.w3.org/1999/xlink" viewBox="0 0 24 24" width="24px" height="24px">
<g id="surface277983650">
<path style=" stroke:none;fill-rule:nonzero;fill:rgb(100%,100%,100%);fill-opacity:1;" d="M 12 2 C 6.484375 2 2 6.261719 2 11.5 C 2 14.046875 3.089844 16.488281 5 18.273438 L 5 20.996094 C 5 21.742188 5.785156 22.226562 6.449219 21.894531 L 9.078125 20.578125 C 10.039062 20.859375 11.019531 21 12 21 C 17.515625 21 22 16.738281 22 11.5 C 22 6.261719 17.515625 2 12 2 Z M 12.46875 13.859375 L 10.25 12.085938 L 5 14.417969 L 10.199219 9.21875 C 10.558594 8.855469 11.132812 8.824219 11.53125 9.144531 L 13.75 10.917969 L 19 8.582031 L 13.800781 13.78125 C 13.4375 14.144531 12.867188 14.175781 12.46875 13.859375 Z M 12.46875 13.859375 "/>
</g>
</svg>
