<?xml version="1.0" encoding="utf-8"?>
<!-- Generator: Adobe Illustrator 26.3.1, SVG Export Plug-In . SVG Version: 6.00 Build 0)  -->
<svg version="1.1" id="Capa_1" xmlns="http://www.w3.org/2000/svg" xmlns:xlink="http://www.w3.org/1999/xlink" x="0px" y="0px"
	 viewBox="0 0 25 25" style="enable-background:new 0 0 25 25;" xml:space="preserve">
<style type="text/css">
	.st0{fill:none;stroke:#000000;stroke-width:1.2832;stroke-miterlimit:10;}
</style>
<g>
	<path d="M15.13,13.96c1.28-0.87,2.14-2.36,2.14-4.05c0-2.68-2.14-4.86-4.76-4.86S7.74,7.22,7.74,9.91c0,1.69,0.85,3.18,2.14,4.05
		c-2.91,1.1-4.99,3.95-4.99,7.3h1.27c0-3.58,2.85-6.49,6.35-6.49c3.5,0,6.35,2.91,6.35,6.49h1.27
		C20.12,17.91,18.03,15.06,15.13,13.96z M12.5,13.47c-1.92,0-3.49-1.6-3.49-3.57s1.57-3.57,3.49-3.57s3.49,1.6,3.49,3.57
		S14.42,13.47,12.5,13.47z"/>
	<ellipse class="st0" cx="12.5" cy="12.5" rx="11.11" ry="11.35"/>
</g>
</svg>
