<svg version="1.1" xmlns="http://www.w3.org/2000/svg" xmlns:xlink="http://www.w3.org/1999/xlink" viewBox="0 0 226 226"><g fill="none" fill-rule="nonzero" stroke="none" stroke-width="1" stroke-linecap="butt" stroke-linejoin="miter" stroke-miterlimit="10" stroke-dasharray="" stroke-dashoffset="0" font-family="none" font-weight="none" font-size="none" text-anchor="none" style="mix-blend-mode: normal"><path d="M0,226v-226h226v226z" fill="none"></path><g fill="#212121"><path d="M18.08,27.12v27.12c-0.2825,1.39484 -4.52,21.87609 -4.52,33.9c0,6.23266 1.21828,12.18281 4.52,16.95v111.87h189.84v-111.87c3.30172,-4.76719 4.52,-10.71734 4.52,-16.95c0,-11.90031 -4.14922,-31.79891 -4.52,-33.6175c0,-0.08828 0,-0.19422 0,-0.2825v-27.12zM27.12,36.16h171.76v13.56h-21.7525c-0.60031,-0.12359 -1.23594,-0.12359 -1.83625,0h-29.6625c-0.45906,-0.12359 -0.93578,-0.17656 -1.4125,-0.14125c-0.14125,0.03531 -0.2825,0.08828 -0.42375,0.14125h-29.80375c-0.45906,-0.12359 -0.93578,-0.17656 -1.4125,-0.14125c-0.14125,0.03531 -0.2825,0.08828 -0.42375,0.14125h-29.80375c-0.45906,-0.12359 -0.93578,-0.17656 -1.4125,-0.14125c-0.14125,0.03531 -0.2825,0.08828 -0.42375,0.14125h-29.80375c-0.45906,-0.12359 -0.93578,-0.17656 -1.4125,-0.14125c-0.14125,0.03531 -0.2825,0.08828 -0.42375,0.14125h-21.7525zM26.555,58.76h18.645v40.115c-2.89563,3.05453 -6.79766,5.085 -11.3,5.085c-3.49594,0 -5.70297,-0.88281 -7.345,-2.5425c-0.2825,-0.54734 -0.65328,-1.02406 -1.13,-1.4125c-1.80094,-2.59547 -2.825,-6.86828 -2.825,-11.865c0,-8.91641 3.17813,-25.23078 3.955,-29.38zM54.24,58.76h22.6v40.115c-2.89562,3.05453 -6.79766,5.085 -11.3,5.085c-4.50234,0 -8.40437,-2.03047 -11.3,-5.085zM85.88,58.76h22.6v40.115c-2.89562,3.05453 -6.79766,5.085 -11.3,5.085c-4.50234,0 -8.40438,-2.03047 -11.3,-5.085zM117.52,58.76h22.6v40.25625c-2.87797,3.01922 -6.81531,4.94375 -11.3,4.94375c-4.50234,0 -8.40438,-2.03047 -11.3,-5.085zM149.16,58.76h22.6v40.25625c-2.87797,3.01922 -6.81531,4.94375 -11.3,4.94375c-4.48469,0 -8.42203,-1.92453 -11.3,-4.94375zM180.8,58.76h18.645c0.77687,4.14922 3.955,20.46359 3.955,29.38c0,4.44938 -0.81219,8.24547 -2.26,10.87625c-1.05938,0.61797 -1.81859,1.64203 -2.11875,2.825c-1.58906,1.39484 -3.72547,2.11875 -6.92125,2.11875c-4.48469,0 -8.42203,-1.92453 -11.3,-4.94375zM144.64,106.36125c4.34344,3.79609 9.58734,6.63875 15.82,6.63875c6.23266,0 11.47656,-2.84266 15.82,-6.63875c4.34344,3.79609 9.58734,6.63875 15.82,6.63875c2.40125,0 4.71422,-0.42375 6.78,-1.13v96.05h-13.56v-81.36h-49.72v81.36h-108.48v-96.05c2.06578,0.70625 4.37875,1.13 6.78,1.13c6.215,0 11.47656,-2.71906 15.82,-6.4975c4.34344,3.77844 9.605,6.4975 15.82,6.4975c6.215,0 11.47656,-2.71906 15.82,-6.4975c4.34344,3.77844 9.605,6.4975 15.82,6.4975c6.215,0 11.47656,-2.71906 15.82,-6.4975c4.34344,3.77844 9.605,6.4975 15.82,6.4975c6.23266,0 11.47656,-2.84266 15.82,-6.63875zM40.68,126.56v67.8h81.36v-67.8zM49.72,135.6h63.28v49.72h-63.28zM144.64,135.6h31.64v72.32h-31.64z"></path></g></g></svg>