<?xml version="1.0" encoding="UTF-8"?>
<svg width="752pt" height="752pt" version="1.1" viewBox="0 0 752 752" xmlns="http://www.w3.org/2000/svg">
 <g>
  <path d="m595.27 559.75v-169.54c0-15.156-12.785-28.414-28.414-28.414h-325.35c-15.629 0-28.414 12.785-28.414 28.414v170.02c0 15.156 12.785 28.414 28.414 28.414h325.35c16.102-0.47266 28.414-13.258 28.414-28.887zm-353.77 14.207c-7.5781 0-14.207-6.6289-14.207-14.207v-169.54c0-7.5781 6.1562-14.207 14.207-14.207h325.35c7.5781 0 14.207 6.6289 14.207 14.207v170.02c0 7.5781-6.1562 14.207-14.207 14.207l-325.35 0.003906z"/>
  <path d="m269.92 390.21v170.02h268.99l0.003906-170.02zm254.79 14.211v141.6l-240.58-0.003906v-141.6z"/>
  <path d="m198.88 531.81h-14.207c-7.5781 0-14.207-6.1562-14.207-14.207v-325.35c0-7.5781 6.6289-14.207 14.207-14.207h170.02c7.5781 0 14.207 6.1562 14.207 14.207v155.33h14.207v-155.33c0-15.629-12.785-28.414-28.414-28.414l-169.54-0.003906c-15.156 0-28.414 12.785-28.414 28.414v325.35c0 15.629 12.785 28.414 28.414 28.414h14.207v-14.207z"/>
  <path d="m198.88 474.98v-240.58h141.6v113.18h14.207v-127.39h-169.54v269h13.734z"/>
  <path d="m568.75 294.07-18.469 24.625c-11.84-62.512-60.617-111.77-123.13-123.61l24.152-17.992-8.5234-11.367-45.938 33.152 33.152 45.938 11.367-8.5234-20.363-28.414c58.25 9.9453 104.66 56.355 115.08 114.61l-27.469-20.836-8.5234 11.367 44.988 34.098 34.098-44.988z"/>
 </g>
</svg>
