<?xml version="1.0" encoding="UTF-8"?>
<svg xmlns="http://www.w3.org/2000/svg" xmlns:xlink="http://www.w3.org/1999/xlink" width="30px" height="30px" viewBox="0 0 69 68" version="1.1">
<g id="surface1">
<path style=" stroke:none;fill-rule:nonzero;fill:rgb(255,255,255);fill-opacity:1;" d="M 28.042969 0 L 28.050781 0 L 28.050781 0.00390625 C 35.792969 0.0078125 42.800781 3.179688 47.875 8.304688 C 52.9375 13.421875 56.074219 20.496094 56.078125 28.308594 L 56.082031 28.308594 L 56.082031 28.347656 L 56.078125 28.347656 C 56.078125 31.5 55.566406 34.527344 54.625 37.355469 C 54.46875 37.828125 54.300781 38.285156 54.132812 38.71875 L 54.132812 38.722656 C 53.320312 40.796875 52.273438 42.757812 51.019531 44.5625 L 67.335938 59.375 L 67.34375 59.386719 L 67.433594 59.46875 L 67.4375 59.472656 C 68.359375 60.359375 68.863281 61.546875 68.925781 62.75 C 68.988281 63.941406 68.621094 65.15625 67.816406 66.132812 L 67.808594 66.140625 L 67.710938 66.257812 L 67.691406 66.277344 L 67.609375 66.367188 L 67.601562 66.378906 C 66.722656 67.308594 65.550781 67.816406 64.359375 67.878906 C 63.179688 67.941406 61.976562 67.574219 61.007812 66.757812 L 61 66.753906 L 60.886719 66.652344 L 60.871094 66.640625 L 44.183594 51.488281 C 43.6875 51.839844 43.1875 52.175781 42.675781 52.492188 C 41.984375 52.917969 41.269531 53.320312 40.535156 53.6875 C 36.777344 55.582031 32.53125 56.648438 28.042969 56.648438 L 28.042969 56.652344 L 28.035156 56.652344 L 28.035156 56.648438 C 20.292969 56.644531 13.28125 53.472656 8.210938 48.347656 C 3.144531 43.230469 0.0078125 36.15625 0.00390625 28.34375 L 0 28.34375 L 0 28.316406 L 0.00390625 28.316406 C 0.0078125 20.496094 3.144531 13.417969 8.21875 8.292969 C 13.285156 3.179688 20.289062 0.0078125 28.023438 0.00390625 L 28.023438 0 Z M 28.050781 6.351562 L 28.050781 6.355469 L 28.023438 6.355469 L 28.023438 6.351562 C 22.027344 6.355469 16.59375 8.816406 12.660156 12.789062 C 8.730469 16.761719 6.289062 22.253906 6.289062 28.316406 L 6.292969 28.316406 L 6.292969 28.347656 L 6.289062 28.347656 C 6.292969 34.402344 8.726562 39.886719 12.660156 43.863281 C 16.59375 47.835938 22.03125 50.296875 28.03125 50.300781 L 28.03125 50.296875 L 28.0625 50.296875 L 28.0625 50.300781 C 34.054688 50.296875 39.488281 47.835938 43.421875 43.863281 C 47.355469 39.890625 49.792969 34.398438 49.792969 28.335938 L 49.789062 28.335938 L 49.789062 28.308594 L 49.792969 28.308594 C 49.789062 22.253906 47.355469 16.765625 43.421875 12.789062 C 39.492188 8.816406 34.054688 6.355469 28.050781 6.351562 Z M 28.050781 6.351562 "/>
</g>
</svg>
