<?xml version="1.0" encoding="utf-8"?>
<!-- Generator: Adobe Illustrator 26.5.0, SVG Export Plug-In . SVG Version: 6.00 Build 0)  -->
<svg version="1.1" id="Capa_1" xmlns="http://www.w3.org/2000/svg" xmlns:xlink="http://www.w3.org/1999/xlink" x="0px" y="0px"
	 viewBox="0 0 180 180" style="enable-background:new 0 0 180 180;" xml:space="preserve">
<style type="text/css">
	.st0{fill:#0066CC;}
</style>
<path class="st0" d="M179.9,41.8c0-0.1,0-0.2,0-0.2V19c0-2.8-2.3-5.1-5.1-5.1H5.2c-2.8,0-5.1,2.3-5.1,5.1v22.9C0,42.4,0,42.8,0,43.2
	l0.2,4.6c0.1,10.9,6.6,20.3,16,24.2v67.1c0,14.9,11.8,26.9,26.4,26.9h32.3h30.2h32.3c14.5,0,26.4-12.1,26.4-26.9v-67
	c9.3-3.8,16-13.1,16.2-23.9l0-0.7L179.9,41.8z M10.4,24.2h159.3v13.1H10.4V24.2z M127,47.5c0,0.1,0,0.1,0,0.2
	c0,8.9-7,16.1-15.5,16.1C103,63.8,96,56.6,96,47.7c0-0.1,0-0.1,0-0.2H127z M84.3,47.5c0,0.1,0,0.1,0,0.2c0,8.9-7,16.1-15.5,16.1
	s-15.5-7.2-15.5-16.1c0-0.1,0-0.1,0-0.2H84.3z M10.5,47.7c0-0.1,0-0.1,0-0.2h31c0,0.1,0,0.1,0,0.2c0,8.9-7,16.1-15.5,16.1
	C17.4,63.8,10.5,56.6,10.5,47.7z M105.1,155.6H74.9v-39.6c0-4,3.3-7.3,7.3-7.3h15.6c4,0,7.3,3.3,7.3,7.3V155.6z M137.4,155.6h-22.1
	v-39.6c0-9.7-7.9-17.5-17.5-17.5H82.2c-9.7,0-17.5,7.9-17.5,17.5v39.6H42.6c-8.9,0-16.1-7.4-16.1-16.5V74
	c8.7-0.2,16.4-4.7,20.9-11.7C52,69.4,59.9,74,68.7,74s16.8-4.6,21.4-11.7c4.6,7,12.5,11.7,21.4,11.7c8.9,0,16.8-4.6,21.4-11.7
	c4.5,6.9,12.1,11.4,20.7,11.7v65.1C153.5,148.2,146.3,155.6,137.4,155.6z M169.8,48.1c-0.2,8.7-7.1,15.7-15.5,15.7
	c-8.5,0-15.5-7.2-15.5-16.1c0-0.1,0-0.1,0-0.2h31l0,0.2L169.8,48.1z"/>
</svg>
