<?xml version="1.0" standalone="no"?>
<!DOCTYPE svg PUBLIC "-//W3C//DTD SVG 1.0//EN" "http://www.w3.org/TR/2001/REC-SVG-20010904/DTD/svg10.dtd">
<svg xmlns="http://www.w3.org/2000/svg" xmlns:xlink="http://www.w3.org/1999/xlink" id="body_1" width="24" height="18">

<g transform="matrix(0.72 0 0 0.72 2.9999998 -0)">
    <path d="M23.77 11.96L22.01 11.7C 21.94 10.55 21.67 9.65 21.27 8.74L21.27 8.74L21.28 8.71L22.710001 7.64C 23.03 7.4 23.09 6.95 22.86 6.63L22.86 6.63L21.02 4.1400003C 20.78 3.8200004 20.34 3.7500005 20.02 3.9900002L20.02 3.9900002L18.470001 5.03C 17.68 4.38 17.28 3.94 15.760001 3.4800003L15.760001 3.4800003L15.760001 3.4700003L16.160002 1.7300003C 16.220001 1.3400003 15.970002 1.0200002 15.580002 0.9600003L15.580002 0.9600003L12.550002 0.5100003C 12.160002 0.4500003 11.990002 0.7100003 11.930002 1.1100004L11.930002 1.1100004L11.680002 2.8700004C 10.55 2.94 9.62 3.2 8.7 3.6L8.7 3.6L8.66 3.59L7.58 2.15C 7.34 1.83 6.88 1.77 6.56 2L6.56 2L4.07 3.85C 3.7500002 4.0899997 3.6800003 4.5299997 3.92 4.85L3.92 4.85L4.9700003 6.34C 4.32 7.13 3.85 7.73 3.43 8.99L3.43 8.99L3.42 8.99L1.66 8.71C 1.27 8.65 1.02 8.84 0.96 9.23L0.96 9.23L0.51 12.289999C 0.45 12.679999 0.63 12.989999 1.02 13.049999L1.02 13.049999L2.78 13.309999C 2.85 14.459999 3.1299999 15.33 3.52 16.24L3.52 16.24L3.51 16.25L2.08 17.32C 1.76 17.56 1.6999999 18.01 1.93 18.32L1.93 18.32L3.77 20.81C 4.0099998 21.13 4.45 21.189999 4.77 20.96L4.77 20.96L6.25 19.91C 7.04 20.56 7.89 21.07 8.89 21.45L8.89 21.45L8.89 21.460001L8.650001 23.220001C 8.59 23.61 8.710001 23.990002 9.110001 24.050001L9.110001 24.050001L12.18 24.51C 12.570001 24.57 12.97 24.27 13.030001 23.880001L13.030001 23.880001L13.120001 22.09C 14.27 22.02 15.240001 21.76 15.85 21.31L15.85 21.31L15.85 21.32L17.08 22.779999C 17.32 23.099998 17.85 23.179998 18.17 22.939999L18.17 22.939999L20.7 21.099998C 21.02 20.859999 21.11 20.419998 20.87 20.099998L20.87 20.099998L19.84 18.559998C 20.49 17.769997 20.93 17.379997 21.4 15.869997L21.4 15.869997L21.41 15.869997L23.15 16.229998C 23.539999 16.289997 23.99 16.099998 24.05 15.709997L24.05 15.709997L24.5 12.669997C 24.55 12.27 24.16 12.02 23.77 11.96zM10.02 16.26C 9.9800005 16.24 9.940001 16.210001 9.900001 16.18C 9.780001 16.1 9.670001 16.01 9.56 15.92C 9.51 15.87 9.450001 15.83 9.400001 15.78C 9.35 15.73 9.3 15.679999 9.240001 15.63C 9.22 15.61 9.190001 15.58 9.170001 15.55C 9.030001 15.400001 8.900001 15.24 8.780001 15.070001C 8.660001 14.900001 8.550001 14.7300005 8.460001 14.540001C 8.420001 14.470001 8.390001 14.390001 8.350001 14.320001C 8.250001 14.090001 8.160002 13.860001 8.100001 13.620001C 7.9500012 13.050001 7.9100013 12.450001 8.000001 11.830001C 8.190001 10.540001 8.920001 9.460001 9.930001 8.780001C 10.020001 8.72 10.110002 8.660001 10.200002 8.610001C 10.230001 8.59 10.260002 8.570001 10.290002 8.56C 10.350002 8.530001 10.420002 8.490001 10.480001 8.46C 10.670001 8.37 10.870002 8.29 11.080002 8.22C 11.150002 8.2 11.220002 8.18 11.290002 8.16C 11.850002 8.0199995 12.450002 7.98 13.060001 8.07C 13.780002 8.179999 14.4400015 8.45 15.000002 8.849999C 15.060002 8.889999 15.120002 8.929999 15.170002 8.98C 15.250002 9.049999 15.340002 9.12 15.420002 9.19C 15.470002 9.24 15.520002 9.29 15.580002 9.339999C 15.600002 9.36 15.630002 9.389999 15.650002 9.419999C 15.700002 9.469999 15.750002 9.5199995 15.790002 9.579999C 15.860002 9.659999 15.930002 9.739999 15.990002 9.829999C 16.030003 9.889999 16.070002 9.949999 16.110003 9.999999C 16.210003 10.149999 16.300003 10.299999 16.380003 10.459999C 16.410004 10.5199995 16.440002 10.589999 16.470003 10.649999C 16.500004 10.719998 16.530003 10.779999 16.550003 10.849998C 16.590004 10.949999 16.630003 11.049998 16.660004 11.159999C 16.850004 11.779999 16.910004 12.449999 16.810003 13.139999C 16.750004 13.5199995 16.650003 13.879999 16.510004 14.219999C 16.480003 14.289999 16.450005 14.349999 16.420004 14.419999C 16.370005 14.5199995 16.320004 14.619999 16.270004 14.709999C 16.230003 14.7699995 16.200005 14.839999 16.160004 14.899999C 16.130003 14.939999 16.110004 14.979999 16.080004 15.019999C 16.030005 15.099998 15.970004 15.179998 15.910004 15.249998C 15.870004 15.3099985 15.8200035 15.359998 15.770003 15.419998C 15.730003 15.459998 15.690003 15.499998 15.660004 15.549998C 15.630004 15.589998 15.590004 15.619998 15.550004 15.659998C 15.530004 15.679998 15.500004 15.709998 15.470004 15.729998C 15.420004 15.779998 15.370004 15.829998 15.310004 15.869998C 15.2800045 15.889998 15.260004 15.919998 15.230004 15.939998C 15.180004 15.989998 15.120005 16.029997 15.060004 16.069998C 15.0300045 16.089998 15.000004 16.109999 14.970004 16.129997C 14.850004 16.209997 14.730004 16.289997 14.610004 16.359997C 14.580005 16.379997 14.550004 16.399998 14.520004 16.409996C 14.460004 16.439997 14.390004 16.479996 14.330005 16.509996C 14.270004 16.539997 14.200005 16.569996 14.130005 16.599997C 14.100005 16.609997 14.060005 16.629997 14.0300045 16.639997C 13.960005 16.669998 13.900004 16.689997 13.830005 16.709997C 13.180005 16.929996 12.470005 16.999998 11.750005 16.899998C 11.170005 16.809998 10.630005 16.619997 10.150004 16.339998C 10.11 16.31 10.07 16.28 10.02 16.26z" stroke="none" fill-rule="nonzero" />
</g>
</svg>