<?xml version="1.0" encoding="utf-8"?>
<!-- Generator: Adobe Illustrator 26.3.1, SVG Export Plug-In . SVG Version: 6.00 Build 0)  -->
<svg version="1.1" id="Capa_1" xmlns="http://www.w3.org/2000/svg" xmlns:xlink="http://www.w3.org/1999/xlink" x="0px" y="0px"
	 viewBox="0 0 40 40" style="enable-background:new 0 0 40 40;" xml:space="preserve">
<style type="text/css">
	.st0{fill-rule:evenodd;clip-rule:evenodd;fill:#FFFFFF;}
</style>
<path class="st0" d="M15.06,20.15v18.37c0,0.26,0.21,0.48,0.48,0.48h6.82c0.26,0,0.48-0.21,0.48-0.48V19.85h4.95
	c0.25,0,0.46-0.19,0.48-0.44l0.48-5.63c0.02-0.28-0.2-0.52-0.48-0.52h-5.42V9.28c0-0.94,0.76-1.69,1.69-1.69h3.81
	c0.26,0,0.48-0.21,0.48-0.48V1.48c0-0.26-0.21-0.48-0.48-0.48h-6.44c-3.78,0-6.84,3.06-6.84,6.84v5.42h-3.41
	c-0.26,0-0.48,0.21-0.48,0.48v5.63c0,0.26,0.21,0.48,0.48,0.48h3.41V20.15z"/>
</svg>
