<?xml version="1.0" encoding="utf-8"?>
<!-- Generator: Adobe Illustrator 26.3.1, SVG Export Plug-In . SVG Version: 6.00 Build 0)  -->
<svg version="1.1" id="Capa_1" xmlns="http://www.w3.org/2000/svg" xmlns:xlink="http://www.w3.org/1999/xlink" x="0px" y="0px"
	 viewBox="0 0 40 40" style="enable-background:new 0 0 40 40;" xml:space="preserve">
<style type="text/css">
	.st0{fill:#FFFFFF;}
</style>
<g>
	<circle class="st0" cx="30.06" cy="10.85" r="2.23"/>
	<path class="st0" d="M20.16,10.64c-5.16,0-9.36,4.2-9.36,9.36s4.2,9.36,9.36,9.36s9.36-4.2,9.36-9.36S25.32,10.64,20.16,10.64z
		 M20.16,25.99c-3.31,0-5.99-2.69-5.99-5.99c0-3.31,2.69-5.99,5.99-5.99c3.31,0,5.99,2.69,5.99,5.99
		C26.15,23.31,23.46,25.99,20.16,25.99z"/>
	<path class="st0" d="M27.59,39H12.41C6.12,39,1,33.88,1,27.59V12.41C1,6.12,6.12,1,12.41,1h15.17C33.88,1,39,6.12,39,12.41v15.17
		C39,33.88,33.88,39,27.59,39z M12.41,4.57c-4.32,0-7.84,3.52-7.84,7.84v15.17c0,4.32,3.52,7.84,7.84,7.84h15.17
		c4.32,0,7.84-3.52,7.84-7.84V12.41c0-4.32-3.52-7.84-7.84-7.84H12.41z"/>
</g>
</svg>
