<?xml version="1.0" encoding="utf-8"?>
<!-- Generator: Adobe Illustrator 26.3.1, SVG Export Plug-In . SVG Version: 6.00 Build 0)  -->
<svg version="1.1" id="Capa_1" xmlns="http://www.w3.org/2000/svg" xmlns:xlink="http://www.w3.org/1999/xlink" x="0px" y="0px"
	 viewBox="0 0 40 40" style="enable-background:new 0 0 40 40;" xml:space="preserve">
<style type="text/css">
	.st0{fill-rule:evenodd;clip-rule:evenodd;fill:#FFFFFF;}
	.st1{fill:#FFFFFF;}
</style>
<path class="st0" d="M-52.04-42.36v18.37c0,0.26,0.21,0.48,0.48,0.48h6.82c0.26,0,0.48-0.21,0.48-0.48v-18.67h4.95
	c0.25,0,0.46-0.19,0.48-0.44l0.48-5.63c0.02-0.28-0.2-0.52-0.48-0.52h-5.42v-3.99c0-0.94,0.76-1.69,1.69-1.69h3.81
	c0.26,0,0.48-0.21,0.48-0.48v-5.63c0-0.26-0.21-0.48-0.48-0.48h-6.44c-3.78,0-6.84,3.06-6.84,6.84v5.42h-3.41
	c-0.26,0-0.48,0.21-0.48,0.48v5.63c0,0.26,0.21,0.48,0.48,0.48h3.41V-42.36z"/>
<g>
	<circle class="st1" cx="10.78" cy="-51.65" r="2.23"/>
	<path class="st1" d="M0.88-51.86c-5.16,0-9.36,4.2-9.36,9.36s4.2,9.36,9.36,9.36s9.36-4.2,9.36-9.36S6.04-51.86,0.88-51.86z
		 M0.88-36.51c-3.31,0-5.99-2.69-5.99-5.99c0-3.31,2.69-5.99,5.99-5.99c3.31,0,5.99,2.69,5.99,5.99C6.87-39.2,4.18-36.51,0.88-36.51
		z"/>
	<path class="st1" d="M8.31-23.51H-6.87c-6.29,0-11.41-5.12-11.41-11.41v-15.17c0-6.29,5.12-11.41,11.41-11.41H8.31
		c6.29,0,11.41,5.12,11.41,11.41v15.17C19.72-28.63,14.6-23.51,8.31-23.51z M-6.87-57.93c-4.32,0-7.84,3.52-7.84,7.84v15.17
		c0,4.32,3.52,7.84,7.84,7.84H8.31c4.32,0,7.84-3.52,7.84-7.84v-15.17c0-4.32-3.52-7.84-7.84-7.84H-6.87z"/>
</g>
<path class="st1" d="M77.1-54.1c-1.18,0.53-2.71,0.86-3.98,1.07c0.6-0.1,1.37-1.19,1.73-1.63c0.54-0.67,0.93-1.44,1.19-2.27
	c0.03-0.06,0.03-0.15-0.04-0.19c-0.08-0.03-0.15-0.02-0.21,0.02c-1.42,0.76-2.89,1.31-4.45,1.7c-0.13,0.03-0.23,0-0.31-0.08
	c-0.13-0.15-0.25-0.28-0.39-0.4c-0.66-0.56-1.36-1-2.15-1.32c-1.04-0.42-2.18-0.6-3.3-0.53c-1.09,0.07-2.16,0.38-3.13,0.88
	c-0.97,0.51-1.84,1.21-2.53,2.06c-0.71,0.88-1.24,1.92-1.51,3.02c-0.26,1.06-0.24,2.12-0.08,3.19c0.02,0.18,0.01,0.2-0.15,0.18
	c-6.1-0.91-11.17-3.09-15.27-7.77c-0.18-0.2-0.28-0.2-0.42,0.02c-1.8,2.69-0.93,7.02,1.32,9.15c0.3,0.28,0.61,0.57,0.94,0.83
	c-0.12,0.02-1.62-0.14-2.95-0.83c-0.18-0.11-0.27-0.05-0.28,0.15c-0.02,0.29,0.01,0.56,0.05,0.87c0.35,2.73,2.24,5.26,4.83,6.24
	c0.31,0.13,0.65,0.24,0.98,0.3c-0.59,0.13-1.2,0.22-2.89,0.09c-0.21-0.04-0.29,0.06-0.21,0.27c1.27,3.47,4.02,4.5,6.07,5.09
	c0.28,0.05,0.55,0.05,0.83,0.11c-0.02,0.02-0.03,0.02-0.05,0.05c-0.68,1.04-3.05,1.81-4.15,2.2c-2,0.7-4.18,1.01-6.3,0.81
	c-0.34-0.05-0.41-0.05-0.5,0c-0.09,0.06-0.01,0.14,0.1,0.23c0.43,0.28,0.87,0.53,1.31,0.78c1.34,0.71,2.75,1.28,4.21,1.68
	c7.57,2.09,16.09,0.55,21.77-5.09c4.46-4.43,6.03-10.55,6.03-16.67c0-0.24,0.28-0.37,0.45-0.5c1.16-0.87,2.56-1.92,3.43-3.08
	c0.19-0.26,0.66-0.49,0.66-0.59c0-0.02,0-0.03,0-0.03C77.72-54.2,77.25-54.17,77.1-54.1z"/>
<path class="st1" d="M135.72-47.47c0-4.61-3.73-8.34-8.34-8.34h-21.32c-4.61,0-8.34,3.73-8.34,8.34v9.92c0,4.61,3.73,8.34,8.34,8.34
	h21.32c4.61,0,8.34-3.73,8.34-8.34V-47.47z M123.18-41.37l-9.56,4.73c-0.37,0.2-1.65-0.07-1.65-0.49v-9.71
	c0-0.43,1.28-0.7,1.66-0.49l9.15,4.98C123.17-42.13,123.57-41.58,123.18-41.37z"/>
<g>
	<path class="st1" d="M168.3-48.47h7.06v3.24h0.1c0.99-1.86,3.39-3.83,6.97-3.83c7.46,0,8.83,4.9,8.83,11.28v12.99h-7.36v-11.52
		c0-2.75-0.05-6.28-3.83-6.28c-3.83,0-4.42,2.99-4.42,6.08v11.72h-7.36V-48.47z"/>
	<path class="st1" d="M156.31-48.47h7.38v23.69h-7.38V-48.47z M160-60.24c2.36,0,4.27,1.91,4.27,4.27c0,2.36-1.91,4.27-4.27,4.27
		c-2.36,0-4.28-1.92-4.28-4.27C155.72-58.33,157.63-60.24,160-60.24"/>
</g>
</svg>
