<?xml version="1.0" encoding="utf-8"?>
<!-- Generator: Adobe Illustrator 26.3.1, SVG Export Plug-In . SVG Version: 6.00 Build 0)  -->
<svg version="1.1" id="Capa_1" xmlns="http://www.w3.org/2000/svg" xmlns:xlink="http://www.w3.org/1999/xlink" x="0px" y="0px"
	 viewBox="0 0 40 40" style="enable-background:new 0 0 40 40;" xml:space="preserve">
<style type="text/css">
	.st0{fill:#FFFFFF;}
</style>
<g>
	<path class="st0" d="M36.5,16.3c-0.3,0-0.6,0-0.9,0c-3.5,0-6.7-1.8-8.6-4.7v15.9c0,6.5-5.3,11.7-11.7,11.7
		c-6.5,0-11.7-5.3-11.7-11.7c0-6.5,5.3-11.7,11.7-11.7l0,0c0.2,0,0.5,0,0.7,0v5.8c-0.2,0-0.5-0.1-0.7-0.1c-3.3,0-6,2.7-6,6
		s2.7,6,6,6c3.3,0,6.2-2.6,6.2-5.9l0.1-26.9H27c0.5,5,4.5,8.8,9.5,9.2L36.5,16.3"/>
</g>
</svg>
