<?xml version="1.0" encoding="utf-8"?>
<!-- Generator: Adobe Illustrator 26.3.1, SVG Export Plug-In . SVG Version: 6.00 Build 0)  -->
<svg version="1.1" id="Capa_1" xmlns="http://www.w3.org/2000/svg" xmlns:xlink="http://www.w3.org/1999/xlink" x="0px" y="0px"
	 viewBox="0 0 40 40" style="enable-background:new 0 0 40 40;" xml:space="preserve">
<style type="text/css">
	.st0{fill:#FFFFFF;}
</style>
<path class="st0" d="M38.38,8.4c-1.18,0.53-2.71,0.86-3.98,1.07c0.6-0.1,1.37-1.19,1.73-1.63c0.54-0.67,0.93-1.44,1.19-2.27
	c0.03-0.06,0.03-0.15-0.04-0.2c-0.08-0.03-0.15-0.02-0.21,0.02c-1.42,0.76-2.89,1.31-4.45,1.7c-0.13,0.03-0.23,0-0.31-0.08
	c-0.13-0.15-0.25-0.28-0.39-0.4c-0.66-0.56-1.36-1-2.15-1.32c-1.04-0.42-2.18-0.6-3.3-0.53c-1.09,0.07-2.16,0.38-3.13,0.88
	c-0.97,0.51-1.84,1.21-2.53,2.06c-0.71,0.88-1.24,1.92-1.51,3.02c-0.26,1.06-0.24,2.12-0.08,3.19c0.02,0.18,0.01,0.2-0.15,0.18
	c-6.1-0.91-11.17-3.09-15.27-7.77C3.6,6.13,3.5,6.13,3.36,6.34c-1.8,2.69-0.93,7.02,1.32,9.15c0.3,0.28,0.61,0.57,0.94,0.83
	C5.49,16.35,4,16.18,2.67,15.49c-0.18-0.11-0.27-0.05-0.28,0.15c-0.02,0.29,0.01,0.56,0.05,0.87c0.35,2.73,2.24,5.26,4.83,6.24
	c0.31,0.13,0.65,0.24,0.98,0.3c-0.59,0.13-1.2,0.22-2.89,0.09c-0.21-0.04-0.29,0.06-0.21,0.27c1.27,3.47,4.02,4.5,6.07,5.09
	c0.28,0.05,0.55,0.05,0.83,0.11c-0.02,0.02-0.03,0.02-0.05,0.05c-0.68,1.04-3.05,1.81-4.15,2.2c-2,0.7-4.18,1.01-6.3,0.81
	c-0.34-0.05-0.41-0.05-0.5,0c-0.09,0.06-0.01,0.14,0.1,0.23c0.43,0.28,0.87,0.53,1.31,0.78c1.34,0.71,2.75,1.28,4.21,1.68
	c7.57,2.09,16.09,0.55,21.77-5.09c4.46-4.43,6.03-10.55,6.03-16.67c0-0.24,0.28-0.37,0.45-0.5c1.16-0.87,2.56-1.92,3.43-3.08
	C38.53,8.76,39,8.53,39,8.43c0-0.02,0-0.03,0-0.03C39,8.3,38.53,8.33,38.38,8.4z"/>
</svg>
